<svg xmlns="http://www.w3.org/2000/svg" xmlns:xlink="http://www.w3.org/1999/xlink" width="500" zoomAndPan="magnify" viewBox="0 0 375 374.999991" height="500" preserveAspectRatio="xMidYMid meet" version="1.0"><path fill="#fdfdfc" d="M 335.96875 123.933594 C 336.050781 111.53125 336.140625 99.375 336.210938 87.21875 C 336.226562 83.839844 336.097656 83.761719 332.738281 83.707031 C 329.351562 83.652344 325.960938 83.582031 322.574219 83.441406 C 317.042969 83.207031 312.980469 79.003906 312.917969 73.511719 C 312.898438 71.691406 312.800781 69.867188 312.929688 68.054688 C 313.074219 66.046875 312.199219 65.5 310.3125 65.511719 C 301.050781 65.574219 291.785156 65.597656 282.519531 65.488281 C 280.339844 65.464844 279.917969 66.355469 279.921875 68.28125 C 279.960938 84.824219 279.921875 101.367188 279.910156 117.910156 C 279.910156 119.320312 279.941406 120.730469 279.484375 122.085938 C 278.714844 124.378906 277.066406 125.613281 274.683594 125.71875 C 272.191406 125.832031 270.59375 124.433594 269.882812 122.1875 C 269.464844 120.875 269.351562 119.421875 269.347656 118.03125 C 269.316406 99.667969 269.316406 81.304688 269.339844 62.941406 C 269.347656 57.746094 271.796875 55.304688 276.894531 55.300781 C 290.875 55.292969 304.855469 55.324219 318.835938 55.265625 C 320.953125 55.257812 322.703125 55.847656 324.257812 57.242188 C 331.039062 63.3125 337.597656 69.617188 343.976562 76.101562 C 345.746094 77.898438 346.480469 80.0625 346.476562 82.617188 C 346.4375 102.96875 346.445312 123.316406 346.496094 143.664062 C 346.503906 146.039062 345.847656 148.070312 344.265625 149.785156 C 337.761719 156.839844 330.980469 163.617188 323.957031 170.15625 C 322.230469 171.761719 320.222656 172.285156 317.855469 172.363281 C 303.628906 172.828125 289.410156 172.035156 275.1875 172.3125 C 270.761719 172.398438 270.75 172.339844 269.710938 176.472656 C 268.519531 181.207031 267.066406 185.859375 265.128906 190.34375 C 264.53125 191.726562 264.566406 192.644531 265.890625 193.726562 C 278.78125 204.246094 276.628906 224.175781 261.832031 231.898438 C 259.03125 233.359375 256.097656 234.476562 253.019531 235.148438 C 251.390625 235.503906 250.453125 236.296875 249.917969 237.914062 C 247.210938 246.097656 243.0625 253.46875 237.269531 259.894531 C 236.496094 260.75 235.789062 261.675781 235.820312 262.953125 C 236.039062 270.964844 235.316406 278.992188 236.25 286.988281 C 236.726562 291.074219 238.40625 294.589844 241.289062 297.519531 C 251.148438 307.550781 261.382812 317.183594 271.960938 326.457031 C 276.558594 330.492188 281.113281 334.585938 285.550781 338.796875 C 288.695312 341.78125 288.304688 345.539062 284.898438 347.480469 C 282.789062 348.679688 280.617188 348.300781 278.355469 346.277344 C 271.761719 340.375 265.171875 334.46875 258.589844 328.550781 C 256.035156 326.253906 256.042969 326.238281 253.65625 328.597656 C 243.59375 338.535156 233.53125 348.476562 223.476562 358.417969 C 219.808594 362.042969 217.304688 362.164062 213.792969 358.402344 C 207.46875 351.640625 200.746094 345.25 194.742188 338.1875 C 194.101562 337.429688 193.527344 337.207031 192.621094 337.535156 C 189.128906 338.808594 185.640625 338.578125 182.167969 337.4375 C 181.351562 337.167969 180.722656 336.984375 180.015625 337.871094 C 175.261719 343.820312 169.6875 349.023438 164.535156 354.613281 C 163.25 356.011719 161.9375 357.390625 160.585938 358.730469 C 157.421875 361.871094 154.753906 361.9375 151.589844 358.828125 C 144.273438 351.636719 137.019531 344.386719 129.71875 337.179688 C 126.601562 334.101562 123.367188 331.136719 120.304688 328 C 119.046875 326.710938 118.125 326.652344 116.800781 327.847656 C 110.101562 333.875 103.34375 339.839844 96.621094 345.839844 C 95.691406 346.667969 94.777344 347.515625 93.558594 347.894531 C 91.347656 348.582031 89.183594 347.777344 87.9375 345.835938 C 86.570312 343.710938 86.691406 341.074219 88.542969 339.214844 C 90.875 336.875 93.371094 334.691406 95.828125 332.484375 C 107.945312 321.59375 120.007812 310.652344 131.679688 299.277344 C 136.523438 294.554688 138.886719 289.195312 138.753906 282.515625 C 138.632812 276.480469 138.683594 270.4375 138.773438 264.402344 C 138.800781 262.550781 138.300781 261.089844 137.082031 259.683594 C 131.449219 253.183594 126.992188 245.96875 124.320312 237.75 C 123.800781 236.160156 122.820312 235.59375 121.320312 235.273438 C 114.09375 233.722656 108.089844 230.292969 103.917969 223.96875 C 97.402344 214.097656 99.316406 201.070312 108.523438 193.671875 C 109.703125 192.722656 109.980469 191.890625 109.378906 190.535156 C 103.53125 177.3125 101.878906 163.351562 102.558594 149.085938 C 103.054688 138.730469 105.152344 128.753906 111.539062 120.167969 C 115.222656 115.21875 119.835938 111.414062 125.480469 108.9375 C 128.464844 107.628906 131.136719 105.933594 133.609375 103.796875 C 144 94.820312 156.417969 90.1875 169.675781 87.804688 C 191.609375 83.859375 212.457031 86.882812 231.738281 98.554688 C 236.21875 101.269531 240.234375 104.574219 243.746094 108.476562 C 244.410156 109.214844 245.027344 109.992188 246.058594 110.265625 C 259.515625 113.835938 266.203125 123.601562 269.628906 136.238281 C 271.628906 143.621094 272.117188 151.199219 271.945312 158.832031 C 271.875 162.015625 271.914062 162.027344 275.042969 162.027344 C 286.625 162.03125 298.207031 161.957031 309.785156 162.082031 C 312.363281 162.113281 313.136719 161.257812 312.957031 158.800781 C 312.773438 156.332031 312.875 153.839844 312.941406 151.359375 C 313.105469 145.300781 316.597656 141.636719 322.632812 141.367188 C 326.265625 141.203125 329.910156 141.242188 333.546875 141.359375 C 335.484375 141.421875 336.246094 140.722656 336.199219 138.804688 C 336.074219 133.929688 336.039062 129.050781 335.96875 123.933594 M 235.625 124.703125 C 230.191406 129.546875 224.074219 133.199219 217.191406 135.632812 C 204.238281 140.214844 191.039062 140.800781 177.597656 138.523438 C 173.890625 137.894531 171.636719 135.433594 172.09375 132.191406 C 172.5625 128.878906 175.21875 127.324219 179.195312 128.054688 C 188.996094 129.847656 198.75 129.789062 208.429688 127.277344 C 216.941406 125.070312 224.453125 121.15625 230.332031 114.425781 C 231.648438 112.917969 231.671875 111.785156 229.988281 110.5625 C 227.441406 108.722656 224.914062 106.851562 222.140625 105.359375 C 206.34375 96.855469 189.53125 95.050781 172.09375 98.050781 C 159.308594 100.25 147.683594 105.101562 138.035156 114.082031 C 136.207031 115.785156 134.027344 116.945312 131.667969 117.839844 C 124.457031 120.566406 119.589844 125.714844 116.601562 132.746094 C 113.695312 139.578125 113.144531 146.785156 113.003906 154.09375 C 112.78125 165.667969 114.675781 176.792969 119.546875 187.34375 C 119.921875 188.160156 119.910156 189.382812 121.175781 189.535156 C 121.757812 189.226562 121.785156 188.722656 121.777344 188.222656 C 121.730469 185.414062 121.792969 182.597656 121.597656 179.796875 C 121.277344 175.136719 121.136719 170.59375 123.753906 166.355469 C 124.769531 164.707031 125.246094 162.691406 125.769531 160.785156 C 127.488281 154.539062 127.8125 148.09375 128.289062 141.675781 C 128.617188 137.234375 128.777344 132.761719 129.8125 128.414062 C 130.796875 124.273438 134.078125 121.449219 137.71875 121.90625 C 144.363281 122.746094 150.878906 124.339844 157.238281 126.417969 C 160.519531 127.488281 161.878906 130.097656 161.042969 132.671875 C 160.070312 135.671875 157.53125 137.058594 154.160156 136.335938 C 151.980469 135.871094 149.847656 135.183594 147.660156 134.769531 C 145.039062 134.269531 142.507812 133.121094 139.636719 133.417969 C 139.261719 138.664062 138.882812 143.757812 138.53125 148.855469 C 137.996094 156.660156 136.4375 164.226562 133.28125 171.421875 C 132.578125 173.019531 132.058594 174.621094 132.0625 176.425781 C 132.101562 190.15625 132.011719 203.886719 132.113281 217.613281 C 132.167969 225.199219 133.597656 232.550781 136.738281 239.511719 C 147.5625 263.515625 175.300781 276.910156 200.828125 270.4375 C 221.605469 265.167969 242.566406 246.164062 242.441406 217.117188 C 242.382812 203.71875 242.433594 190.320312 242.445312 176.921875 C 242.445312 175.589844 242.445312 174.265625 241.855469 173.035156 C 238.890625 166.867188 237.1875 160.324219 236.28125 153.582031 C 235.730469 149.496094 235.28125 145.378906 235.113281 141.265625 C 234.96875 137.796875 237.167969 135.621094 240.296875 135.558594 C 243.347656 135.496094 245.375 137.4375 245.738281 140.800781 C 245.925781 142.527344 246.085938 144.253906 246.207031 145.984375 C 246.660156 152.515625 247.03125 159.230469 250.175781 165 C 253.183594 170.515625 253.34375 176.121094 253.140625 181.988281 C 253.078125 183.804688 253.078125 185.625 253.09375 187.445312 C 253.101562 188.140625 252.804688 188.953125 253.609375 189.464844 C 254.625 188.480469 254.625 188.480469 254.992188 187.578125 C 258.363281 179.25 260.460938 170.652344 261.054688 161.652344 C 261.613281 153.242188 261.238281 144.9375 258.699219 136.890625 C 256.453125 129.777344 252.429688 123.972656 245.167969 121.011719 C 242.335938 119.855469 239.777344 119.484375 237.832031 122.566406 C 237.363281 123.3125 236.546875 123.839844 235.625 124.703125 M 171.574219 317.816406 C 174.808594 320.113281 178.023438 322.441406 181.28125 324.707031 C 186.851562 328.585938 188.292969 328.609375 193.882812 324.613281 C 200.75 319.714844 207.5625 314.742188 214.371094 309.765625 C 218.644531 306.640625 222.871094 303.457031 227.113281 300.292969 C 227.988281 299.644531 228.910156 299.011719 228.273438 297.664062 C 224.78125 290.289062 225.132812 282.394531 225.160156 274.539062 C 225.164062 273.421875 225.464844 272.253906 224.886719 271.160156 C 199.871094 286.523438 174.859375 286.417969 149.714844 270.972656 C 149.191406 273.128906 149.386719 274.941406 149.40625 276.726562 C 149.480469 283.855469 149.523438 290.976562 146.332031 297.617188 C 145.6875 298.964844 146.496094 299.582031 147.40625 300.246094 C 155.371094 306.027344 163.328125 311.816406 171.574219 317.816406 M 160.265625 344.164062 C 164.113281 339.890625 168.46875 336.066406 171.894531 331.527344 C 171.664062 331.144531 171.613281 330.957031 171.492188 330.867188 C 161.011719 323.207031 150.527344 315.558594 140.042969 307.902344 C 139.375 307.417969 138.691406 307.1875 138.0625 307.902344 C 134.578125 311.863281 131.109375 315.835938 127.394531 320.082031 C 136.421875 328.945312 146.242188 338.582031 156.050781 348.214844 C 157.84375 347.113281 158.8125 345.644531 160.265625 344.164062 M 242.964844 313.941406 C 241.15625 312.253906 239.222656 310.675781 237.574219 308.839844 C 236.101562 307.195312 235 307.503906 233.425781 308.6875 C 225.710938 314.492188 217.917969 320.191406 210.15625 325.933594 C 207.796875 327.679688 205.449219 329.445312 202.882812 331.363281 C 208.007812 337.398438 213.273438 342.796875 218.476562 348.039062 C 219.585938 347.796875 220.027344 347.160156 220.546875 346.652344 C 228.429688 338.894531 236.308594 331.128906 244.183594 323.359375 C 248.355469 319.234375 248.347656 319.226562 244.101562 315.058594 C 243.804688 314.769531 243.511719 314.480469 242.964844 313.941406 M 114.867188 202.425781 C 110.78125 206.015625 109.972656 210.460938 111.667969 215.429688 C 113.269531 220.121094 116.863281 222.542969 121.804688 223.972656 C 121.804688 217.558594 121.804688 211.558594 121.804688 205.554688 C 121.804688 199.933594 120.730469 199.3125 115.578125 201.9375 C 115.433594 202.011719 115.296875 202.113281 114.867188 202.425781 M 260.367188 203.210938 C 258.957031 201.996094 257.328125 201.332031 255.507812 200.894531 C 253.5625 200.429688 253 201.03125 253.023438 202.9375 C 253.097656 209.222656 253.050781 215.507812 253.078125 221.792969 C 253.082031 222.40625 252.871094 223.136719 253.546875 223.582031 C 262.96875 221.476562 266.757812 210.660156 260.367188 203.210938 M 326.242188 151.9375 C 322.976562 152.007812 322.378906 152.992188 323.8125 156.371094 C 324.894531 155.234375 325.914062 154.179688 326.914062 153.097656 C 327.410156 152.5625 327.519531 152.082031 326.242188 151.9375 M 326 72.371094 C 325.195312 71.648438 324.527344 70.730469 323.214844 70.328125 C 323.214844 71.136719 323.160156 71.707031 323.226562 72.257812 C 323.386719 73.582031 324.511719 73.261719 325.324219 73.363281 C 325.765625 73.417969 326.914062 73.921875 326 72.371094 Z M 326 72.371094 " fill-opacity="1" fill-rule="nonzero"/><path fill="#fdfdfc" d="M 61.839844 267.582031 C 47.1875 268.625 38.441406 259.714844 34.863281 250.703125 C 30.433594 239.5625 33.589844 226.277344 42.488281 218.527344 C 44.152344 217.074219 46.09375 215.933594 48.25 214.402344 C 42.347656 214.332031 36.746094 213.695312 31.25 214.867188 C 22.417969 216.757812 15.804688 224.46875 15.453125 233.511719 C 15.144531 241.355469 15.359375 249.222656 15.316406 257.074219 C 15.308594 258.25 15.765625 259.125 16.621094 259.882812 C 26.15625 268.320312 35.675781 276.78125 45.21875 285.210938 C 47.148438 286.914062 49.4375 287.679688 52.046875 287.707031 C 58.410156 287.78125 64.777344 287.871094 71.136719 288.113281 C 82.40625 288.539062 92.863281 291.363281 101.496094 299.066406 C 103.089844 300.488281 104.152344 300.375 105.613281 298.9375 C 109.511719 295.109375 113.820312 291.746094 118.042969 288.292969 C 118.941406 287.554688 119.878906 286.894531 121.003906 286.523438 C 123.375 285.746094 125.84375 286.515625 127.144531 288.472656 C 128.546875 290.585938 128.398438 292.824219 126.300781 294.726562 C 122.203125 298.445312 117.941406 301.988281 113.765625 305.621094 C 111.460938 307.628906 109.214844 309.710938 106.894531 311.699219 C 103.605469 314.515625 101.132812 314.527344 98.355469 311.214844 C 93.265625 305.152344 87.019531 301.171875 79.265625 299.578125 C 74.460938 298.59375 69.570312 298.5625 64.703125 298.421875 C 59.582031 298.269531 54.449219 298.332031 49.324219 298.363281 C 46.574219 298.378906 44.113281 297.59375 41.875 296.050781 C 36.953125 292.65625 32.722656 288.445312 28.238281 284.535156 C 21.882812 278.992188 15.707031 273.242188 9.324219 267.730469 C 6.023438 264.882812 4.390625 261.671875 4.585938 257.164062 C 4.898438 249.902344 4.402344 242.597656 4.746094 235.335938 C 5.273438 224.289062 9.453125 214.964844 18.953125 208.601562 C 23.835938 205.332031 29.367188 203.875 35.144531 203.816406 C 44.8125 203.722656 54.5 203.214844 64.144531 204.234375 C 74.175781 205.296875 82.628906 209.59375 89.34375 217.160156 C 90.375 218.320312 91.257812 219.640625 91.488281 221.285156 C 91.796875 223.484375 90.964844 225.203125 89.226562 226.433594 C 87.457031 227.6875 85.507812 227.804688 83.640625 226.632812 C 82.53125 225.9375 81.542969 225.054688 80.285156 224.34375 C 82.058594 228.6875 83.175781 233.152344 83.460938 237.929688 C 84.632812 237.914062 85.261719 237.085938 86.019531 236.558594 C 91.695312 232.617188 98.839844 234.328125 102.117188 240.425781 C 104.007812 243.945312 104.617188 247.792969 104.664062 251.683594 C 104.78125 261.359375 104.742188 271.035156 104.722656 280.714844 C 104.714844 284.300781 102.59375 286.839844 99.671875 286.925781 C 96.464844 287.019531 94.109375 284.523438 94.074219 280.675781 C 93.992188 271.332031 94.042969 261.984375 93.992188 252.640625 C 93.984375 251.078125 93.75 249.515625 93.59375 247.957031 C 93.5 247.039062 93.367188 246.070312 92.300781 245.769531 C 91.289062 245.484375 90.589844 246.164062 89.90625 246.78125 C 87.496094 248.96875 85.617188 251.585938 83.859375 254.296875 C 78.722656 262.214844 71.617188 266.886719 61.839844 267.582031 M 74.789062 250.308594 C 72.726562 250.757812 70.65625 251.28125 68.628906 249.472656 C 71.601562 245.078125 72.699219 240.308594 72.214844 235.085938 C 71.265625 224.800781 61.207031 219.371094 52.183594 224.367188 C 43.171875 229.355469 40.714844 242.980469 47.292969 251.457031 C 51.292969 256.605469 56.253906 257.902344 62.09375 255.078125 C 64.019531 254.148438 64.957031 254.625 65.425781 256.640625 C 69.167969 255.277344 72.488281 253.707031 74.789062 250.308594 Z M 74.789062 250.308594 " fill-opacity="1" fill-rule="nonzero"/><path fill="#fdfdfc" d="M 341.425781 203.722656 C 354.234375 209.089844 363.738281 217.503906 368.296875 230.765625 C 369.945312 235.5625 370.808594 240.511719 370.792969 245.601562 C 370.777344 249.902344 370.648438 254.210938 370.847656 258.503906 C 371 261.761719 369.875 264.292969 367.53125 266.414062 C 359.574219 273.636719 351.636719 280.882812 343.652344 288.078125 C 341.011719 290.457031 338.292969 292.75 335.539062 294.996094 C 332.699219 297.320312 329.507812 298.429688 325.71875 298.417969 C 318.199219 298.398438 310.671875 298.144531 303.152344 298.714844 C 293.046875 299.488281 284.117188 302.488281 277.460938 310.71875 C 274.324219 314.59375 271.03125 314.675781 267.421875 311.507812 C 261.457031 306.273438 255.503906 301.023438 249.542969 295.78125 C 248.414062 294.789062 247.320312 293.753906 246.988281 292.214844 C 246.210938 288.652344 249.519531 285.570312 253.222656 286.367188 C 255.421875 286.84375 257.046875 288.277344 258.683594 289.667969 C 262.585938 292.992188 266.507812 296.296875 270.308594 299.734375 C 271.429688 300.75 272.191406 300.785156 273.21875 299.816406 C 282.71875 290.847656 294.398438 288.273438 306.996094 287.992188 C 312.699219 287.867188 318.40625 287.816406 324.109375 287.769531 C 327.113281 287.742188 329.515625 286.679688 331.703125 284.707031 C 340.613281 276.683594 349.558594 268.691406 358.515625 260.722656 C 361.5 258.0625 359.875 254.785156 360.148438 251.785156 C 358.753906 251.328125 357.785156 251.941406 356.777344 252.21875 C 342.800781 256.066406 330.277344 253.953125 319.769531 243.320312 C 316.425781 239.941406 312.828125 236.949219 307.835938 236.257812 C 298.945312 235.027344 292.199219 238.675781 286.984375 245.523438 C 283.140625 250.574219 281.164062 256.335938 280.832031 262.753906 C 280.558594 268.132812 280.828125 273.496094 280.789062 278.863281 C 280.785156 279.523438 280.824219 280.1875 280.785156 280.847656 C 280.546875 284.671875 278.441406 287 275.308594 286.929688 C 272.210938 286.859375 270.179688 284.433594 270.25 280.527344 C 270.386719 272.929688 269.714844 265.3125 270.71875 257.738281 C 272.765625 242.3125 283.898438 228.300781 299.945312 225.804688 C 308.667969 224.449219 316.726562 226.328125 323.390625 232.5625 C 324.539062 233.632812 325.710938 234.683594 326.835938 235.78125 C 335.371094 244.09375 347.484375 245.898438 358.242188 240.59375 C 359.890625 239.777344 359.828125 238.800781 359.457031 237.414062 C 356.867188 227.761719 350.914062 220.742188 342.375 215.84375 C 325.664062 206.253906 305.949219 209.671875 293.410156 224.238281 C 293.246094 224.425781 293.089844 224.617188 292.921875 224.800781 C 290.371094 227.597656 287.289062 228.21875 285.066406 226.390625 C 282.613281 224.375 282.375 220.878906 284.878906 217.96875 C 292.671875 208.902344 302.273438 202.746094 314.210938 200.777344 C 323.449219 199.25 332.488281 200.300781 341.425781 203.722656 Z M 341.425781 203.722656 " fill-opacity="1" fill-rule="nonzero"/><path fill="#fdfdfc" d="M 41.25 133.890625 C 41.25 142.078125 41.304688 150.019531 41.210938 157.957031 C 41.183594 160.023438 41.875 160.605469 43.917969 160.59375 C 56.570312 160.511719 69.222656 160.546875 81.875 160.5625 C 87.914062 160.570312 90.332031 162.980469 90.335938 168.976562 C 90.34375 174.597656 90.355469 180.222656 90.300781 185.847656 C 90.253906 190.929688 88.242188 193.207031 83.175781 193.398438 C 77.394531 193.613281 71.597656 193.582031 65.8125 193.476562 C 61.894531 193.402344 59.78125 191.339844 59.871094 187.378906 C 59.9375 184.582031 58.828125 184.152344 56.390625 184.175781 C 44.902344 184.285156 33.410156 184.25 21.917969 184.222656 C 14.96875 184.207031 12.128906 181.335938 12.125 174.414062 C 12.117188 159.195312 12.121094 143.976562 12.132812 128.761719 C 12.132812 127.441406 12.089844 126.125 12.472656 124.824219 C 13.507812 121.324219 15.882812 119.410156 19.527344 119.34375 C 22.585938 119.289062 25.648438 119.277344 28.707031 119.347656 C 30.265625 119.382812 30.871094 118.8125 31.015625 117.21875 C 31.40625 112.953125 34.402344 110.058594 38.703125 109.972656 C 45.230469 109.84375 51.769531 109.84375 58.300781 109.96875 C 62.226562 110.042969 64.933594 112.828125 65.003906 116.808594 C 65.042969 118.820312 65.804688 119.339844 67.667969 119.324219 C 76.757812 119.261719 85.851562 119.25 94.945312 119.316406 C 98.753906 119.347656 100.792969 121.167969 100.824219 124.230469 C 100.855469 127.203125 98.679688 129.378906 95.066406 129.410156 C 83.242188 129.515625 71.417969 129.511719 59.589844 129.425781 C 56.375 129.402344 54.742188 127.410156 54.472656 123.886719 C 54.195312 120.199219 54.195312 120.191406 50.484375 120.199219 C 48.167969 120.203125 45.851562 120.21875 43.539062 120.265625 C 41.957031 120.296875 41.171875 120.988281 41.21875 122.726562 C 41.316406 126.363281 41.25 130.003906 41.25 133.890625 M 31.199219 164.535156 C 30.769531 154.785156 31.132812 145.027344 31.019531 135.273438 C 30.941406 128.675781 32.066406 129.742188 25.191406 129.550781 C 23.039062 129.492188 22.308594 130.199219 22.324219 132.382812 C 22.40625 145.367188 22.414062 158.351562 22.328125 171.332031 C 22.3125 173.566406 23.09375 174.148438 25.210938 174.121094 C 33.390625 174.03125 41.574219 174.046875 49.753906 174.125 C 54.875 174.171875 60.011719 173.804688 65.121094 174.40625 C 67.839844 174.726562 69.5 176.375 69.949219 178.972656 C 70.632812 182.945312 70.632812 182.945312 74.824219 182.949219 C 75.734375 182.953125 76.644531 182.910156 77.550781 182.960938 C 79.113281 183.050781 79.84375 182.386719 79.8125 180.792969 C 79.777344 178.726562 79.835938 176.660156 79.835938 174.59375 C 79.84375 170.78125 79.839844 170.765625 76.011719 170.761719 C 64.019531 170.742188 52.027344 170.765625 40.039062 170.714844 C 35.054688 170.695312 32.851562 169.167969 31.199219 164.535156 Z M 31.199219 164.535156 " fill-opacity="1" fill-rule="nonzero"/><path fill="#fdfdfc" d="M 166.769531 20.453125 C 169.4375 20.25 170.839844 21.960938 172.355469 23.488281 C 176.066406 27.226562 178.378906 27.421875 182.675781 24.425781 C 183.574219 23.796875 183.519531 22.890625 183.558594 21.992188 C 183.652344 19.847656 183.613281 17.6875 183.859375 15.5625 C 184.183594 12.703125 186.292969 11.035156 189.140625 11.132812 C 191.894531 11.226562 193.765625 12.964844 194.140625 15.664062 C 194.40625 17.566406 194.253906 19.457031 194.183594 21.351562 C 194.121094 23.089844 194.484375 24.480469 196.53125 24.769531 C 196.929688 24.824219 197.308594 25.042969 197.6875 25.203125 C 202.140625 27.085938 202.136719 27.082031 205.527344 23.734375 C 206.351562 22.921875 207.152344 22.0625 208.082031 21.390625 C 210.042969 19.976562 212.773438 20.191406 214.480469 21.78125 C 216.34375 23.519531 216.738281 26.136719 215.5 28.3125 C 214.445312 30.160156 212.808594 31.460938 211.179688 32.707031 C 209.441406 34.039062 209.296875 35.390625 210.441406 37.132812 C 210.886719 37.816406 211.320312 38.605469 211.429688 39.390625 C 211.878906 42.570312 213.800781 43.347656 216.675781 42.957031 C 217.808594 42.800781 219 42.867188 220.140625 43.019531 C 222.871094 43.386719 224.917969 45.710938 224.863281 48.238281 C 224.808594 50.707031 222.871094 52.757812 220.179688 53.214844 C 218.375 53.519531 216.554688 53.515625 214.742188 53.355469 C 213.121094 53.214844 212.167969 53.804688 211.523438 55.375 C 209.402344 60.53125 209.371094 60.488281 213.34375 64.609375 C 215.117188 66.445312 217.089844 68.242188 215.980469 71.28125 C 214.621094 75.011719 210.636719 76.234375 207.621094 73.660156 C 205.929688 72.21875 204.457031 70.515625 202.929688 68.894531 C 202.070312 67.976562 201.179688 67.707031 200.085938 68.433594 C 200.019531 68.476562 199.941406 68.515625 199.863281 68.535156 C 195.746094 69.546875 193.636719 71.746094 194.328125 76.378906 C 194.683594 78.746094 193.796875 81.125 191.175781 82.308594 C 187.746094 83.851562 184.246094 81.953125 183.910156 78.199219 C 183.746094 76.3125 183.851562 74.402344 183.835938 72.5 C 183.828125 71.746094 183.839844 70.957031 183.007812 70.585938 C 181.050781 69.710938 179.082031 68.847656 177.109375 68.011719 C 176.226562 67.640625 175.703125 68.328125 175.199219 68.828125 C 173.792969 70.226562 172.488281 71.730469 171.054688 73.097656 C 168.570312 75.464844 165.625 75.621094 163.554688 73.585938 C 161.390625 71.453125 161.351562 68.296875 163.585938 65.828125 C 164.855469 64.421875 166.265625 63.132812 167.667969 61.855469 C 168.648438 60.964844 168.761719 60.183594 168.304688 58.835938 C 166.917969 54.753906 164.957031 52.0625 159.980469 53.308594 C 158.574219 53.660156 156.851562 53.300781 155.550781 52.167969 C 153.898438 50.730469 153.191406 48.949219 153.746094 46.84375 C 154.328125 44.617188 155.957031 43.34375 158.191406 43.078125 C 159.988281 42.867188 161.824219 42.875 163.636719 42.933594 C 165.117188 42.980469 165.621094 42.25 166.3125 41 C 168.757812 36.5625 168.308594 33.375 164.035156 29.992188 C 160.035156 26.828125 161.757812 21.5625 166.769531 20.453125 M 184.6875 60.097656 C 194.804688 63.695312 204.6875 53.984375 202.242188 44.5625 C 200.527344 37.957031 193.917969 32.960938 187.511719 33.949219 C 181.320312 34.902344 176.523438 39.710938 175.78125 45.710938 C 175.035156 51.730469 178.375 57.296875 184.6875 60.097656 Z M 184.6875 60.097656 " fill-opacity="1" fill-rule="nonzero"/><path fill="#fdfdfc" d="M 110.695312 86.851562 C 108.503906 89.089844 107.515625 91.496094 107.6875 94.570312 C 107.882812 98.015625 105.691406 100.191406 102.226562 100.253906 C 96.441406 100.355469 90.648438 100.359375 84.859375 100.253906 C 81.554688 100.191406 79.003906 97.964844 79.234375 94.886719 C 79.492188 91.441406 77.859375 89.160156 75.925781 86.710938 C 70.164062 79.410156 68.472656 71.371094 72.097656 62.554688 C 75.871094 53.390625 85.535156 47.90625 96.039062 48.917969 C 105.878906 49.863281 114.261719 57.542969 116.175781 67.09375 C 117.683594 74.59375 115.371094 80.933594 110.695312 86.851562 M 99.875 60.902344 C 92.289062 56.792969 83.507812 60.054688 81.292969 68 C 79.808594 73.3125 81.632812 77.894531 85.253906 81.863281 C 86.46875 83.199219 87.835938 84.410156 88.394531 86.246094 C 89.5625 90.109375 89.59375 90.101562 93.710938 90.109375 C 94.617188 90.113281 95.527344 90.113281 96.433594 90.097656 C 97.128906 90.085938 97.917969 89.960938 97.929688 89.140625 C 98 85.269531 100.742188 82.917969 102.933594 80.292969 C 107.691406 74.601562 107.222656 65.351562 99.875 60.902344 Z M 99.875 60.902344 " fill-opacity="1" fill-rule="nonzero"/><path fill="#fdfdfc" d="M 300.34375 333.492188 C 290.53125 333.039062 285.183594 323.375 288.515625 314.777344 C 290.214844 310.394531 294.074219 307.550781 298.785156 307.492188 C 304.902344 307.410156 311.023438 307.433594 317.140625 307.480469 C 320.246094 307.503906 322.546875 309.578125 322.515625 312.160156 C 322.484375 314.824219 320.34375 316.660156 317.0625 316.703125 C 312.679688 316.757812 308.296875 316.730469 303.914062 316.738281 C 303.167969 316.738281 302.421875 316.722656 301.679688 316.761719 C 299.5625 316.882812 298.007812 317.867188 297.503906 319.984375 C 297.144531 321.488281 299.035156 323.765625 300.945312 324.335938 C 303.371094 325.058594 305.871094 324.738281 308.34375 324.777344 C 310.078125 324.804688 311.816406 324.726562 313.550781 324.8125 C 316.339844 324.949219 318.125 326.605469 318.179688 328.976562 C 318.234375 331.207031 316.628906 333.109375 313.957031 333.300781 C 310.171875 333.566406 306.359375 333.46875 302.558594 333.519531 C 301.894531 333.527344 301.234375 333.507812 300.34375 333.492188 Z M 300.34375 333.492188 " fill-opacity="1" fill-rule="nonzero"/><path fill="#fdfdfc" d="M 323.152344 129.863281 C 313.195312 129.921875 303.449219 130.023438 293.710938 129.933594 C 289.234375 129.890625 286.726562 126.574219 288.148438 123.011719 C 288.996094 120.890625 290.722656 119.953125 292.820312 119.9375 C 302.726562 119.878906 312.636719 119.847656 322.542969 119.980469 C 325.625 120.019531 327.433594 121.851562 327.625 124.378906 C 327.835938 127.214844 326.539062 128.875 323.152344 129.863281 Z M 323.152344 129.863281 " fill-opacity="1" fill-rule="nonzero"/><path fill="#fdfdfc" d="M 326.101562 100.492188 C 327.78125 102.246094 328.066406 104.121094 327.203125 106.121094 C 326.277344 108.265625 324.433594 109.160156 322.21875 109.171875 C 312.632812 109.210938 303.039062 109.277344 293.453125 109.144531 C 289.179688 109.082031 286.753906 105.628906 288.230469 102.1875 C 289.074219 100.222656 290.667969 99.21875 292.710938 99.207031 C 302.632812 99.152344 312.550781 99.160156 322.46875 99.207031 C 323.695312 99.210938 324.917969 99.589844 326.101562 100.492188 Z M 326.101562 100.492188 " fill-opacity="1" fill-rule="nonzero"/><path fill="#fdfdfc" d="M 130.855469 49.066406 C 130.53125 49.554688 130.238281 49.890625 130.164062 50.273438 C 129.460938 53.898438 127.566406 55.074219 124.023438 54.089844 C 122.984375 53.800781 122.605469 53.046875 122.402344 52.121094 C 121.429688 47.703125 123.179688 43.644531 127.070312 41.210938 C 128.378906 40.390625 129.6875 39.363281 128.996094 37.652344 C 128.269531 35.855469 126.511719 35.894531 124.941406 36.28125 C 124.011719 36.511719 123.148438 37.089844 122.320312 37.609375 C 120.308594 38.863281 118.679688 38.085938 117.210938 36.667969 C 115.660156 35.167969 115.34375 33.378906 116.441406 31.496094 C 119.179688 26.808594 127.902344 25.417969 133.183594 28.785156 C 138.386719 32.105469 140.019531 39.058594 136.722656 43.921875 C 135.253906 46.089844 133.125 47.523438 130.855469 49.066406 Z M 130.855469 49.066406 " fill-opacity="1" fill-rule="nonzero"/><path fill="#fdfdfc" d="M 131.738281 81.511719 C 126.460938 76.8125 125.816406 70.121094 130.054688 65.351562 C 134.140625 60.753906 141.015625 60.375 145.609375 64.496094 C 149.894531 68.34375 150.480469 74.503906 147.011719 79.277344 C 143.714844 83.820312 137.242188 84.820312 131.738281 81.511719 M 136.074219 70.992188 C 134.273438 72.71875 134.421875 73.039062 138.417969 75.84375 C 139.128906 74.851562 140.109375 74.226562 141.359375 74.28125 C 141.359375 73.140625 141.359375 72.191406 141.359375 71.050781 C 139.734375 71.414062 139.226562 69.789062 138.09375 69.324219 C 137.472656 69.898438 136.941406 70.386719 136.074219 70.992188 Z M 136.074219 70.992188 " fill-opacity="1" fill-rule="nonzero"/><path fill="#fdfdfc" d="M 244.527344 36.570312 C 242.523438 37.304688 241.160156 36.488281 240.007812 35.160156 C 238.851562 33.832031 239.199219 32.371094 239.839844 30.972656 C 242.285156 25.644531 249.039062 22.980469 255.308594 24.84375 C 261.035156 26.546875 264.519531 31.902344 263.578125 37.804688 C 262.902344 42.035156 260.191406 44.675781 256.316406 46.152344 C 254.9375 46.679688 253.566406 46.976562 252.578125 48.292969 C 251.75 49.402344 250.40625 49.394531 249.175781 48.84375 C 247.832031 48.242188 247.164062 47.101562 247.226562 45.664062 C 247.328125 43.417969 248.429688 41.75 250.488281 40.789062 C 251.160156 40.472656 251.890625 40.300781 252.566406 39.996094 C 254.941406 38.933594 256.007812 36.800781 255.183594 34.832031 C 254.324219 32.777344 251.554688 31.835938 249.257812 32.742188 C 247.320312 33.507812 246.347656 35.40625 244.527344 36.570312 Z M 244.527344 36.570312 " fill-opacity="1" fill-rule="nonzero"/><path fill="#fdfdfc" d="M 324.496094 270.375 C 326.492188 273.496094 325.921875 276.742188 322.898438 277.734375 C 314.480469 280.5 301.949219 281.1875 294.207031 272.777344 C 293.488281 271.992188 292.808594 271.132812 292.285156 270.210938 C 290.992188 267.9375 291.464844 265.53125 293.398438 263.988281 C 295.367188 262.417969 297.902344 262.398438 299.601562 264.546875 C 302.582031 268.316406 306.488281 269.703125 311.03125 270.089844 C 313.628906 270.308594 316.128906 269.742188 318.667969 269.46875 C 320.628906 269.253906 322.621094 268.730469 324.496094 270.375 Z M 324.496094 270.375 " fill-opacity="1" fill-rule="nonzero"/><path fill="#fdfdfc" d="M 69.988281 319.738281 C 69.636719 318.566406 70.042969 317.746094 70.699219 317.085938 C 73.140625 314.625 75.617188 312.191406 78.097656 309.769531 C 79.476562 308.425781 80.886719 308.460938 82.21875 309.832031 C 84.519531 312.207031 86.8125 314.585938 89.074219 316.992188 C 90.28125 318.277344 90.347656 319.742188 89.148438 320.996094 C 86.8125 323.445312 84.390625 325.8125 81.929688 328.140625 C 80.773438 329.238281 79.308594 329.421875 78.148438 328.230469 C 75.445312 325.464844 72.308594 323.117188 69.988281 319.738281 M 81.085938 317.554688 C 79.910156 316.15625 79.316406 317.386719 78.613281 318.101562 C 77.871094 318.859375 78.039062 319.507812 78.808594 320.15625 C 79.488281 320.730469 80.109375 321.085938 80.945312 320.382812 C 81.875 319.601562 82.425781 318.828125 81.085938 317.554688 Z M 81.085938 317.554688 " fill-opacity="1" fill-rule="nonzero"/><path fill="#fdfdfc" d="M 59.253906 82.527344 C 57.300781 84.445312 55.484375 86.242188 53.648438 88.015625 C 51.914062 89.699219 50.179688 89.679688 48.46875 87.960938 C 46.488281 85.980469 44.457031 84.046875 42.527344 82.015625 C 40.605469 79.988281 40.601562 78.9375 42.5 76.945312 C 44.546875 74.796875 46.683594 72.738281 48.796875 70.652344 C 50.296875 69.171875 51.886719 69.15625 53.363281 70.625 C 55.703125 72.945312 58.003906 75.308594 60.242188 77.722656 C 61.976562 79.59375 60.671875 81.023438 59.253906 82.527344 M 49.433594 79.746094 C 49.945312 80.382812 50.40625 81.070312 51.28125 81.359375 C 52.171875 80.9375 52.949219 80.410156 53.136719 79.296875 C 52.496094 78.542969 51.976562 77.703125 50.972656 77.386719 C 50.265625 78 49.441406 78.445312 49.433594 79.746094 Z M 49.433594 79.746094 " fill-opacity="1" fill-rule="nonzero"/><path fill="#fdfdfc" d="M 61.917969 137.730469 C 64.148438 137.738281 66.140625 137.65625 68.117188 137.769531 C 71.472656 137.964844 73.550781 139.996094 73.613281 142.984375 C 73.675781 145.816406 71.726562 148.078125 68.476562 148.25 C 64.027344 148.488281 59.550781 148.480469 55.09375 148.300781 C 52.078125 148.175781 50.011719 145.6875 50.074219 142.855469 C 50.136719 140.199219 52.25 138.015625 55.226562 137.792969 C 57.363281 137.632812 59.523438 137.742188 61.917969 137.730469 Z M 61.917969 137.730469 " fill-opacity="1" fill-rule="nonzero"/><path fill="#fdfdfc" d="M 294.773438 150.429688 C 291.863281 150.667969 289.589844 150.058594 288.300781 147.441406 C 286.863281 144.523438 288.207031 141.183594 291.40625 140.703125 C 297.046875 139.859375 302.769531 140.015625 308.425781 140.707031 C 310.722656 140.988281 312.316406 143.46875 312.121094 145.609375 C 311.894531 148.101562 309.65625 150.285156 306.90625 150.371094 C 302.945312 150.492188 298.976562 150.417969 294.773438 150.429688 Z M 294.773438 150.429688 " fill-opacity="1" fill-rule="nonzero"/><path fill="#fdfdfc" d="M 249.191406 50.363281 C 254.675781 50.394531 258.492188 54.066406 258.097656 58.699219 C 257.71875 63.101562 253.371094 66.351562 248.898438 65.578125 C 245.378906 64.972656 242.648438 61.753906 242.507812 58.050781 C 242.375 54.511719 244.890625 51.535156 249.191406 50.363281 M 248.460938 58.800781 C 249.039062 59.722656 249.777344 60.308594 250.917969 59.828125 C 251.742188 59.480469 252.308594 58.804688 252.1875 57.914062 C 252.054688 56.933594 251.304688 56.246094 250.332031 56.214844 C 248.871094 56.167969 248.402344 57.203125 248.460938 58.800781 Z M 248.460938 58.800781 " fill-opacity="1" fill-rule="nonzero"/><path fill="#fdfdfc" d="M 359.605469 164.804688 C 359.980469 166.414062 361.257812 166.503906 362.316406 166.859375 C 363.695312 167.324219 365.0625 167.832031 365.003906 169.601562 C 364.949219 171.167969 363.808594 171.921875 362.441406 172.203125 C 360.683594 172.566406 359.804688 173.605469 359.335938 175.277344 C 358.972656 176.5625 358.324219 177.742188 356.65625 177.738281 C 355.046875 177.738281 354.289062 176.675781 353.847656 175.386719 C 353.292969 173.75 352.222656 172.808594 350.613281 172.296875 C 349.304688 171.878906 348.175781 171.160156 348.207031 169.546875 C 348.238281 167.945312 349.335938 167.300781 350.710938 166.929688 C 352.125 166.542969 353.214844 165.820312 353.707031 164.292969 C 354.160156 162.886719 354.6875 161.402344 356.625 161.457031 C 358.6875 161.511719 359.015625 163.160156 359.605469 164.804688 Z M 359.605469 164.804688 " fill-opacity="1" fill-rule="nonzero"/><path fill="#fdfdfc" d="M 101.066406 111.292969 C 99.898438 113.019531 98.378906 113.59375 96.542969 113.757812 C 94.316406 113.960938 92.105469 113.875 89.894531 113.695312 C 87.269531 113.480469 85.253906 111.199219 85.210938 108.519531 C 85.167969 106.0625 87 104.238281 89.859375 104.117188 C 92.238281 104.015625 94.640625 103.980469 97.011719 104.164062 C 101.394531 104.503906 102.773438 106.914062 101.066406 111.292969 Z M 101.066406 111.292969 " fill-opacity="1" fill-rule="nonzero"/><path fill="#fdfdfc" d="M 300.800781 200.765625 C 298.703125 201.398438 297.238281 200.683594 296.03125 199.234375 C 294.554688 197.457031 293.253906 195.546875 292.230469 193.480469 C 291.097656 191.1875 291.867188 188.828125 294.023438 187.523438 C 296.148438 186.246094 298.238281 186.640625 299.839844 188.835938 C 301.050781 190.492188 302.128906 192.257812 303.121094 194.050781 C 304.796875 197.070312 304.15625 198.921875 300.800781 200.765625 Z M 300.800781 200.765625 " fill-opacity="1" fill-rule="nonzero"/><path fill="#fdfdfc" d="M 324.9375 195.441406 C 320.746094 197.875 317.492188 196.074219 317.429688 191.476562 C 317.402344 189.664062 317.34375 187.839844 317.480469 186.035156 C 317.671875 183.472656 319.363281 181.9375 321.835938 181.882812 C 324.246094 181.828125 326.179688 183.136719 326.289062 185.570312 C 326.433594 188.839844 327.578125 192.332031 324.9375 195.441406 Z M 324.9375 195.441406 " fill-opacity="1" fill-rule="nonzero"/><path fill="#fdfdfc" d="M 344.140625 188.179688 C 346.507812 186.445312 348.554688 186.417969 350.3125 187.964844 C 352.207031 189.628906 352.464844 191.476562 350.996094 193.933594 C 349.980469 195.628906 348.933594 197.324219 347.707031 198.867188 C 346.042969 200.953125 343.707031 201.34375 341.792969 200.078125 C 339.738281 198.722656 339.164062 196.324219 340.484375 193.984375 C 341.578125 192.050781 342.835938 190.210938 344.140625 188.179688 Z M 344.140625 188.179688 " fill-opacity="1" fill-rule="nonzero"/><path fill="#fdfdfc" d="M 231.351562 85.011719 C 229.515625 82.609375 229.554688 80.253906 231.054688 77.96875 C 232.367188 75.96875 234.394531 75.320312 236.6875 75.761719 C 239.019531 76.210938 240.4375 77.707031 240.957031 80.039062 C 241.460938 82.296875 240.410156 84.609375 238.273438 85.941406 C 236.015625 87.351562 234.003906 87.117188 231.351562 85.011719 Z M 231.351562 85.011719 " fill-opacity="1" fill-rule="nonzero"/><path fill="#fdfdfc" d="M 248.757812 86.203125 C 246.265625 84.546875 245.4375 82.34375 246.113281 79.683594 C 246.65625 77.546875 248 76.027344 250.316406 75.695312 C 252.726562 75.355469 254.785156 76.035156 255.984375 78.261719 C 257.121094 80.375 257.070312 82.542969 255.550781 84.511719 C 253.96875 86.550781 251.707031 87.132812 248.757812 86.203125 Z M 248.757812 86.203125 " fill-opacity="1" fill-rule="nonzero"/><path fill="#fdfdfc" d="M 183.394531 352.867188 C 181.550781 349.941406 181.425781 347.894531 183.027344 345.855469 C 184.421875 344.085938 186.324219 343.359375 188.535156 343.917969 C 190.847656 344.503906 192.242188 346.089844 192.574219 348.433594 C 192.90625 350.792969 191.957031 352.648438 189.871094 353.832031 C 187.574219 355.136719 185.4375 354.832031 183.394531 352.867188 Z M 183.394531 352.867188 " fill-opacity="1" fill-rule="nonzero"/><path fill="#fdfdfc" d="M 294.433594 87.410156 C 290.882812 87.328125 288.859375 85.6875 288.539062 82.804688 C 288.210938 79.851562 289.792969 77.535156 292.59375 76.871094 C 295.261719 76.238281 297.917969 77.683594 298.964844 80.339844 C 300.113281 83.25 298.3125 86.175781 294.433594 87.410156 Z M 294.433594 87.410156 " fill-opacity="1" fill-rule="nonzero"/><path fill="#fdfdfc" d="M 301.859375 249.546875 C 300.96875 244.816406 303.769531 241.5625 307.488281 242.753906 C 309.777344 243.492188 311.023438 245.148438 311.175781 247.507812 C 311.304688 249.542969 309.59375 251.652344 307.492188 252.234375 C 304.964844 252.933594 303.164062 251.964844 301.859375 249.546875 Z M 301.859375 249.546875 " fill-opacity="1" fill-rule="nonzero"/><path fill="#fdfdfc" d="M 122.476562 269.820312 C 124.535156 268.378906 126.523438 268.265625 128.394531 269.617188 C 129.960938 270.742188 130.855469 272.386719 130.398438 274.363281 C 129.90625 276.464844 128.46875 277.804688 126.34375 278.277344 C 124.347656 278.71875 122.703125 277.996094 121.648438 276.296875 C 120.261719 274.066406 120.511719 271.898438 122.476562 269.820312 Z M 122.476562 269.820312 " fill-opacity="1" fill-rule="nonzero"/><path fill="#fdfdfc" d="M 253.816406 274.5625 C 252.523438 277.316406 250.597656 278.664062 248.503906 278.339844 C 246.300781 278 244.996094 276.625 244.523438 274.507812 C 243.929688 271.855469 245.476562 269.367188 247.957031 268.828125 C 250.785156 268.214844 253.1875 269.792969 253.765625 272.683594 C 253.875 273.234375 253.839844 273.8125 253.816406 274.5625 Z M 253.816406 274.5625 " fill-opacity="1" fill-rule="nonzero"/><path fill="#fdfdfc" d="M 281.757812 37.753906 C 280.203125 40.585938 278.199219 41.675781 275.902344 41.09375 C 273.855469 40.574219 272.558594 38.753906 272.585938 36.433594 C 272.617188 33.65625 274.566406 31.609375 277.175781 31.605469 C 279.773438 31.605469 281.824219 33.625 281.941406 36.332031 C 281.960938 36.742188 281.867188 37.152344 281.757812 37.753906 Z M 281.757812 37.753906 " fill-opacity="1" fill-rule="nonzero"/><path fill="#fdfdfc" d="M 261.859375 248.238281 C 262.324219 249.710938 262.394531 251.003906 261.78125 252.257812 C 260.558594 254.742188 257.507812 255.753906 255.308594 254.414062 C 253.058594 253.042969 252.386719 249.980469 253.847656 247.707031 C 255.359375 245.351562 258.238281 244.84375 260.503906 246.585938 C 261.007812 246.976562 261.355469 247.570312 261.859375 248.238281 Z M 261.859375 248.238281 " fill-opacity="1" fill-rule="nonzero"/><path fill="#fdfdfc" d="M 30.480469 89.996094 C 33.351562 89.046875 35.253906 89.5625 36.503906 91.546875 C 37.664062 93.382812 37.492188 95.207031 36.121094 96.8125 C 34.707031 98.46875 32.910156 99.046875 30.777344 98.199219 C 27.882812 97.050781 26.964844 91.945312 30.480469 89.996094 Z M 30.480469 89.996094 " fill-opacity="1" fill-rule="nonzero"/><path fill="#fdfdfc" d="M 371.203125 201.1875 C 369.539062 204.792969 366.660156 205.910156 364.089844 204.128906 C 362.339844 202.914062 361.699219 200.714844 362.523438 198.671875 C 363.382812 196.542969 365.105469 195.710938 367.25 195.917969 C 369.644531 196.144531 371.140625 198.179688 371.203125 201.1875 Z M 371.203125 201.1875 " fill-opacity="1" fill-rule="nonzero"/><path fill="#fdfdfc" d="M 54.722656 312.421875 C 54.671875 309.84375 55.683594 308.257812 58.1875 307.984375 C 60.246094 307.761719 61.71875 308.675781 62.398438 310.644531 C 63.113281 312.714844 61.976562 314.894531 59.910156 315.613281 C 57.453125 316.464844 55.71875 315.457031 54.722656 312.421875 Z M 54.722656 312.421875 " fill-opacity="1" fill-rule="nonzero"/><path fill="#fdfdfc" d="M 93.507812 36.023438 C 93.804688 33.121094 95.09375 31.71875 97.207031 31.78125 C 99.261719 31.84375 101.042969 33.59375 101.074219 35.589844 C 101.101562 37.507812 99.300781 39.394531 97.261719 39.433594 C 95.125 39.472656 93.894531 38.320312 93.507812 36.023438 Z M 93.507812 36.023438 " fill-opacity="1" fill-rule="nonzero"/><path fill="#fdfdfc" d="M 140.671875 22.207031 C 141.144531 19.335938 142.792969 17.898438 144.917969 18.300781 C 147.0625 18.703125 148.460938 20.773438 148.019531 22.898438 C 147.589844 24.980469 145.6875 26.292969 143.59375 25.863281 C 141.753906 25.484375 140.730469 24.335938 140.671875 22.207031 Z M 140.671875 22.207031 " fill-opacity="1" fill-rule="nonzero"/><path fill="#fdfdfc" d="M 228.78125 21.386719 C 230.03125 19.78125 231.429688 19.222656 233.21875 19.945312 C 234.644531 20.519531 235.53125 21.5625 235.621094 23.074219 C 235.707031 24.589844 234.886719 25.726562 233.609375 26.503906 C 232.246094 27.332031 230.914062 27.171875 229.753906 26.140625 C 228.34375 24.890625 227.699219 23.390625 228.78125 21.386719 Z M 228.78125 21.386719 " fill-opacity="1" fill-rule="nonzero"/><path fill="#fdfdfc" d="M 122.125 251.972656 C 121.75 254.222656 120.53125 255.460938 118.449219 255.390625 C 116.84375 255.335938 115.742188 254.304688 115.417969 252.652344 C 115.011719 250.601562 116.050781 248.871094 117.878906 248.484375 C 119.917969 248.050781 121.5625 249.320312 122.125 251.972656 Z M 122.125 251.972656 " fill-opacity="1" fill-rule="nonzero"/><path fill="#fdfdfc" d="M 121.371094 355.296875 C 122.96875 356.867188 123.125 358.484375 121.839844 360.027344 C 120.832031 361.238281 119.464844 361.757812 117.878906 361.011719 C 116.238281 360.238281 115.625 358.90625 115.941406 357.183594 C 116.351562 354.9375 118.472656 354.152344 121.371094 355.296875 Z M 121.371094 355.296875 " fill-opacity="1" fill-rule="nonzero"/><path fill="#fdfdfc" d="M 185.507812 166.214844 C 179.84375 166.277344 175.707031 168.429688 173.402344 173.566406 C 172.773438 174.972656 172.773438 176.453125 172.664062 177.933594 C 172.46875 180.628906 171.574219 182.929688 168.929688 184.1875 C 164.683594 186.207031 160.265625 183.386719 160.042969 178.5 C 159.613281 169.132812 166.121094 159.964844 175.628906 156.546875 C 187.355469 152.332031 199.925781 155.960938 206.898438 165.574219 C 213.960938 175.316406 213.65625 189.902344 206.25 199.433594 C 203.898438 202.460938 201.207031 205.15625 198.175781 207.453125 C 193.644531 210.886719 191.519531 215.171875 192.074219 220.957031 C 192.410156 224.484375 190.210938 226.824219 186.871094 227.375 C 182.945312 228.019531 179.769531 225.417969 179.421875 221.296875 C 178.738281 213.203125 180.828125 206.367188 187.585938 201.167969 C 191.164062 198.417969 194.695312 195.472656 197.316406 191.667969 C 203.089844 183.292969 199.65625 170.777344 190.578125 167.082031 C 189.007812 166.445312 187.394531 166.242188 185.507812 166.214844 Z M 185.507812 166.214844 " fill-opacity="1" fill-rule="nonzero"/><path fill="#fdfdfc" d="M 183.019531 235.847656 C 189.539062 234.605469 194.238281 237.328125 195.636719 242.972656 C 196.925781 248.171875 193.621094 253.527344 188.273438 254.910156 C 183.136719 256.234375 177.753906 252.976562 176.460938 247.753906 C 175.175781 242.574219 177.617188 238.03125 183.019531 235.847656 Z M 183.019531 235.847656 " fill-opacity="1" fill-rule="nonzero"/><path fill="#fdfdfc" d="M 53.914062 229.027344 C 59.4375 225.996094 64.914062 228.574219 65.925781 234.640625 C 66.441406 237.734375 66.328125 240.867188 65.527344 243.953125 C 65.039062 245.835938 64.367188 247.078125 62.203125 245.714844 C 61.878906 245.511719 61.429688 245.503906 60.910156 245.375 C 60.613281 247.21875 62.175781 248.457031 62.222656 250.027344 C 58.46875 252.585938 54.988281 252.058594 52.191406 248.578125 C 47.929688 243.277344 48.707031 233.722656 53.914062 229.027344 Z M 53.914062 229.027344 " fill-opacity="1" fill-rule="nonzero"/></svg>