<svg xmlns="http://www.w3.org/2000/svg" xmlns:xlink="http://www.w3.org/1999/xlink" width="500" zoomAndPan="magnify" viewBox="0 0 375 374.999991" height="500" preserveAspectRatio="xMidYMid meet" version="1.0"><path fill="#000000" d="M 335.976562 123.9375 C 336.0625 111.535156 336.152344 99.378906 336.21875 87.222656 C 336.238281 83.84375 336.109375 83.765625 332.75 83.710938 C 329.359375 83.65625 325.972656 83.585938 322.585938 83.445312 C 317.050781 83.210938 312.988281 79.007812 312.925781 73.515625 C 312.90625 71.695312 312.8125 69.871094 312.941406 68.058594 C 313.082031 66.050781 312.210938 65.503906 310.324219 65.515625 C 301.058594 65.578125 291.792969 65.601562 282.53125 65.492188 C 280.347656 65.46875 279.929688 66.359375 279.933594 68.285156 C 279.96875 84.828125 279.929688 101.371094 279.917969 117.914062 C 279.917969 119.324219 279.949219 120.738281 279.496094 122.089844 C 278.722656 124.386719 277.074219 125.617188 274.695312 125.726562 C 272.199219 125.835938 270.605469 124.4375 269.890625 122.195312 C 269.472656 120.882812 269.359375 119.425781 269.355469 118.035156 C 269.324219 99.671875 269.324219 81.308594 269.347656 62.945312 C 269.355469 57.75 271.804688 55.308594 276.90625 55.304688 C 290.886719 55.296875 304.863281 55.328125 318.84375 55.269531 C 320.964844 55.261719 322.710938 55.851562 324.269531 57.246094 C 331.050781 63.3125 337.605469 69.621094 343.988281 76.105469 C 345.757812 77.902344 346.492188 80.066406 346.488281 82.621094 C 346.449219 102.972656 346.457031 123.320312 346.507812 143.671875 C 346.515625 146.042969 345.855469 148.074219 344.277344 149.789062 C 337.773438 156.847656 330.988281 163.625 323.96875 170.160156 C 322.242188 171.769531 320.234375 172.292969 317.867188 172.367188 C 303.640625 172.832031 289.417969 172.042969 275.195312 172.316406 C 270.769531 172.402344 270.757812 172.347656 269.71875 176.476562 C 268.527344 181.214844 267.078125 185.863281 265.140625 190.347656 C 264.542969 191.730469 264.574219 192.652344 265.898438 193.734375 C 278.789062 204.25 276.636719 224.183594 261.839844 231.90625 C 259.039062 233.367188 256.105469 234.488281 253.027344 235.15625 C 251.402344 235.511719 250.460938 236.304688 249.929688 237.921875 C 247.21875 246.105469 243.070312 253.480469 237.277344 259.902344 C 236.503906 260.757812 235.796875 261.6875 235.832031 262.960938 C 236.046875 270.972656 235.328125 279 236.257812 287 C 236.734375 291.082031 238.414062 294.601562 241.296875 297.53125 C 251.15625 307.5625 261.390625 317.195312 271.96875 326.46875 C 276.570312 330.503906 281.125 334.59375 285.558594 338.808594 C 288.703125 341.792969 288.316406 345.550781 284.90625 347.488281 C 282.796875 348.691406 280.625 348.308594 278.363281 346.285156 C 271.769531 340.386719 265.179688 334.476562 258.601562 328.5625 C 256.042969 326.261719 256.050781 326.246094 253.664062 328.605469 C 243.601562 338.546875 233.539062 348.484375 223.484375 358.429688 C 219.816406 362.054688 217.3125 362.175781 213.796875 358.414062 C 207.472656 351.652344 200.753906 345.261719 194.75 338.195312 C 194.109375 337.441406 193.535156 337.214844 192.628906 337.546875 C 189.136719 338.820312 185.644531 338.589844 182.171875 337.445312 C 181.359375 337.179688 180.730469 336.992188 180.023438 337.878906 C 175.265625 343.832031 169.695312 349.03125 164.542969 354.621094 C 163.253906 356.019531 161.941406 357.402344 160.59375 358.742188 C 157.429688 361.882812 154.757812 361.949219 151.59375 358.835938 C 144.28125 351.648438 137.027344 344.394531 129.726562 337.191406 C 126.605469 334.113281 123.371094 331.148438 120.308594 328.011719 C 119.050781 326.722656 118.132812 326.664062 116.804688 327.855469 C 110.105469 333.882812 103.351562 339.847656 96.625 345.851562 C 95.695312 346.679688 94.78125 347.527344 93.566406 347.90625 C 91.355469 348.59375 89.191406 347.789062 87.941406 345.847656 C 86.574219 343.71875 86.695312 341.085938 88.546875 339.226562 C 90.878906 336.886719 93.375 334.703125 95.835938 332.492188 C 107.949219 321.605469 120.011719 310.660156 131.6875 299.285156 C 136.53125 294.566406 138.890625 289.207031 138.757812 282.523438 C 138.640625 276.488281 138.6875 270.449219 138.777344 264.410156 C 138.804688 262.558594 138.308594 261.097656 137.089844 259.691406 C 131.453125 253.191406 126.996094 245.976562 124.324219 237.757812 C 123.808594 236.167969 122.824219 235.601562 121.328125 235.28125 C 114.101562 233.730469 108.09375 230.300781 103.921875 223.976562 C 97.40625 214.101562 99.320312 201.078125 108.527344 193.679688 C 109.710938 192.730469 109.984375 191.898438 109.382812 190.539062 C 103.535156 177.316406 101.886719 163.359375 102.5625 149.09375 C 103.058594 138.734375 105.15625 128.757812 111.546875 120.171875 C 115.226562 115.226562 119.839844 111.417969 125.488281 108.941406 C 128.472656 107.632812 131.144531 105.9375 133.617188 103.804688 C 144.003906 94.824219 156.425781 90.191406 169.683594 87.808594 C 191.613281 83.863281 212.464844 86.886719 231.746094 98.5625 C 236.226562 101.273438 240.242188 104.578125 243.753906 108.480469 C 244.417969 109.21875 245.035156 109.996094 246.066406 110.269531 C 259.523438 113.839844 266.214844 123.609375 269.636719 136.242188 C 271.640625 143.628906 272.125 151.207031 271.957031 158.835938 C 271.886719 162.023438 271.921875 162.035156 275.054688 162.035156 C 286.632812 162.039062 298.214844 161.960938 309.796875 162.089844 C 312.371094 162.117188 313.148438 161.265625 312.964844 158.804688 C 312.785156 156.335938 312.886719 153.84375 312.953125 151.363281 C 313.117188 145.308594 316.605469 141.640625 322.640625 141.371094 C 326.273438 141.207031 329.921875 141.246094 333.558594 141.363281 C 335.492188 141.425781 336.257812 140.726562 336.210938 138.808594 C 336.085938 133.933594 336.050781 129.058594 335.976562 123.9375 M 235.632812 124.707031 C 230.199219 129.550781 224.082031 133.203125 217.199219 135.640625 C 204.246094 140.222656 191.046875 140.804688 177.601562 138.527344 C 173.898438 137.902344 171.644531 135.441406 172.101562 132.199219 C 172.570312 128.882812 175.226562 127.332031 179.199219 128.058594 C 189 129.855469 198.757812 129.796875 208.4375 127.285156 C 216.949219 125.078125 224.460938 121.160156 230.339844 114.429688 C 231.65625 112.921875 231.679688 111.789062 229.996094 110.570312 C 227.449219 108.726562 224.921875 106.855469 222.148438 105.363281 C 206.351562 96.859375 189.539062 95.054688 172.101562 98.054688 C 159.3125 100.253906 147.6875 105.105469 138.039062 114.089844 C 136.210938 115.789062 134.03125 116.949219 131.675781 117.84375 C 124.464844 120.574219 119.59375 125.71875 116.605469 132.75 C 113.703125 139.582031 113.148438 146.789062 113.007812 154.101562 C 112.785156 165.671875 114.679688 176.800781 119.550781 187.351562 C 119.925781 188.167969 119.914062 189.390625 121.179688 189.542969 C 121.765625 189.234375 121.789062 188.730469 121.78125 188.230469 C 121.738281 185.421875 121.796875 182.601562 121.605469 179.804688 C 121.285156 175.140625 121.140625 170.601562 123.757812 166.363281 C 124.773438 164.714844 125.25 162.695312 125.773438 160.792969 C 127.492188 154.542969 127.820312 148.101562 128.292969 141.683594 C 128.625 137.238281 128.785156 132.769531 129.816406 128.417969 C 130.800781 124.277344 134.082031 121.453125 137.726562 121.914062 C 144.371094 122.75 150.882812 124.34375 157.246094 126.421875 C 160.527344 127.496094 161.886719 130.105469 161.050781 132.675781 C 160.074219 135.679688 157.539062 137.066406 154.164062 136.34375 C 151.984375 135.875 149.851562 135.1875 147.664062 134.773438 C 145.046875 134.273438 142.515625 133.125 139.644531 133.425781 C 139.265625 138.667969 138.890625 143.765625 138.539062 148.859375 C 138 156.667969 136.441406 164.234375 133.285156 171.425781 C 132.582031 173.027344 132.0625 174.628906 132.066406 176.429688 C 132.105469 190.160156 132.015625 203.890625 132.117188 217.621094 C 132.175781 225.207031 133.601562 232.558594 136.742188 239.519531 C 147.570312 263.523438 175.308594 276.917969 200.835938 270.445312 C 221.613281 265.179688 242.574219 246.171875 242.449219 217.125 C 242.390625 203.726562 242.441406 190.328125 242.453125 176.925781 C 242.453125 175.597656 242.453125 174.269531 241.863281 173.039062 C 238.898438 166.871094 237.195312 160.332031 236.289062 153.585938 C 235.738281 149.5 235.289062 145.386719 235.121094 141.269531 C 234.976562 137.804688 237.175781 135.625 240.304688 135.5625 C 243.359375 135.503906 245.386719 137.441406 245.746094 140.808594 C 245.933594 142.53125 246.097656 144.261719 246.214844 145.992188 C 246.667969 152.519531 247.039062 159.238281 250.183594 165.003906 C 253.191406 170.523438 253.351562 176.125 253.148438 181.992188 C 253.085938 183.8125 253.085938 185.632812 253.101562 187.453125 C 253.109375 188.148438 252.8125 188.960938 253.617188 189.472656 C 254.632812 188.488281 254.632812 188.488281 255 187.585938 C 258.371094 179.257812 260.46875 170.660156 261.0625 161.65625 C 261.621094 153.25 261.246094 144.941406 258.707031 136.894531 C 256.460938 129.78125 252.4375 123.976562 245.179688 121.015625 C 242.347656 119.859375 239.785156 119.492188 237.839844 122.570312 C 237.371094 123.320312 236.554688 123.847656 235.632812 124.707031 M 171.578125 317.824219 C 174.816406 320.125 178.03125 322.449219 181.289062 324.71875 C 186.859375 328.597656 188.300781 328.617188 193.890625 324.625 C 200.753906 319.722656 207.570312 314.75 214.378906 309.773438 C 218.652344 306.652344 222.878906 303.46875 227.121094 300.304688 C 227.996094 299.652344 228.917969 299.023438 228.28125 297.675781 C 224.789062 290.296875 225.140625 282.402344 225.167969 274.546875 C 225.171875 273.429688 225.472656 272.265625 224.894531 271.167969 C 199.878906 286.535156 174.867188 286.429688 149.722656 270.980469 C 149.199219 273.140625 149.394531 274.953125 149.414062 276.734375 C 149.488281 283.867188 149.527344 290.988281 146.339844 297.628906 C 145.691406 298.972656 146.503906 299.59375 147.414062 300.253906 C 155.375 306.035156 163.332031 311.828125 171.578125 317.824219 M 160.273438 344.175781 C 164.117188 339.902344 168.476562 336.078125 171.902344 331.539062 C 171.671875 331.152344 171.617188 330.96875 171.496094 330.878906 C 161.015625 323.21875 150.53125 315.566406 140.046875 307.914062 C 139.382812 307.425781 138.695312 307.195312 138.066406 307.914062 C 134.582031 311.871094 131.113281 315.847656 127.398438 320.09375 C 136.425781 328.957031 146.246094 338.59375 156.058594 348.226562 C 157.851562 347.125 158.820312 345.65625 160.273438 344.175781 M 242.976562 313.953125 C 241.164062 312.261719 239.230469 310.683594 237.582031 308.847656 C 236.109375 307.203125 235.007812 307.511719 233.433594 308.695312 C 225.71875 314.503906 217.925781 320.203125 210.164062 325.945312 C 207.804688 327.691406 205.457031 329.457031 202.890625 331.371094 C 208.015625 337.410156 213.28125 342.808594 218.484375 348.046875 C 219.59375 347.808594 220.035156 347.171875 220.554688 346.664062 C 228.4375 338.90625 236.320312 331.140625 244.191406 323.367188 C 248.363281 319.246094 248.355469 319.238281 244.109375 315.070312 C 243.8125 314.78125 243.519531 314.492188 242.976562 313.953125 M 114.875 202.433594 C 110.789062 206.023438 109.976562 210.46875 111.671875 215.4375 C 113.277344 220.128906 116.867188 222.550781 121.808594 223.980469 C 121.808594 217.566406 121.8125 211.566406 121.808594 205.5625 C 121.808594 199.941406 120.734375 199.320312 115.582031 201.945312 C 115.4375 202.019531 115.304688 202.121094 114.875 202.433594 M 260.375 203.214844 C 258.964844 202.003906 257.335938 201.339844 255.519531 200.902344 C 253.574219 200.4375 253.007812 201.039062 253.03125 202.945312 C 253.105469 209.230469 253.058594 215.515625 253.085938 221.800781 C 253.089844 222.414062 252.882812 223.144531 253.558594 223.589844 C 262.976562 221.484375 266.765625 210.667969 260.375 203.214844 M 326.253906 151.945312 C 322.988281 152.015625 322.390625 153 323.820312 156.378906 C 324.902344 155.242188 325.925781 154.183594 326.921875 153.105469 C 327.421875 152.566406 327.53125 152.089844 326.253906 151.945312 M 326.007812 72.371094 C 325.207031 71.652344 324.535156 70.734375 323.226562 70.332031 C 323.226562 71.140625 323.167969 71.710938 323.238281 72.261719 C 323.398438 73.585938 324.523438 73.265625 325.332031 73.367188 C 325.773438 73.421875 326.921875 73.925781 326.007812 72.371094 Z M 326.007812 72.371094 " fill-opacity="1" fill-rule="nonzero"/><path fill="#000000" d="M 61.84375 267.589844 C 47.191406 268.632812 38.445312 259.726562 34.863281 250.710938 C 30.4375 239.570312 33.59375 226.285156 42.488281 218.535156 C 44.15625 217.082031 46.09375 215.941406 48.253906 214.410156 C 42.351562 214.339844 36.75 213.703125 31.253906 214.875 C 22.421875 216.765625 15.804688 224.476562 15.453125 233.519531 C 15.148438 241.363281 15.359375 249.230469 15.316406 257.085938 C 15.3125 258.257812 15.769531 259.132812 16.625 259.890625 C 26.160156 268.332031 35.675781 276.789062 45.222656 285.21875 C 47.152344 286.925781 49.441406 287.6875 52.046875 287.71875 C 58.414062 287.789062 64.78125 287.878906 71.140625 288.121094 C 82.410156 288.546875 92.867188 291.371094 101.503906 299.074219 C 103.097656 300.496094 104.15625 300.386719 105.621094 298.949219 C 109.515625 295.121094 113.824219 291.757812 118.046875 288.300781 C 118.949219 287.566406 119.882812 286.902344 121.011719 286.53125 C 123.378906 285.753906 125.847656 286.523438 127.148438 288.480469 C 128.550781 290.597656 128.402344 292.832031 126.308594 294.734375 C 122.207031 298.457031 117.949219 301.996094 113.769531 305.632812 C 111.464844 307.640625 109.222656 309.722656 106.898438 311.710938 C 103.609375 314.527344 101.140625 314.535156 98.359375 311.222656 C 93.269531 305.160156 87.023438 301.179688 79.269531 299.589844 C 74.464844 298.601562 69.574219 298.574219 64.707031 298.429688 C 59.585938 298.28125 54.453125 298.339844 49.324219 298.371094 C 46.578125 298.390625 44.117188 297.605469 41.878906 296.058594 C 36.957031 292.667969 32.722656 288.453125 28.242188 284.542969 C 21.882812 279 15.707031 273.25 9.324219 267.738281 C 6.027344 264.890625 4.394531 261.683594 4.585938 257.175781 C 4.902344 249.910156 4.402344 242.609375 4.75 235.347656 C 5.277344 224.296875 9.457031 214.972656 18.957031 208.609375 C 23.839844 205.339844 29.371094 203.882812 35.148438 203.824219 C 44.816406 203.730469 54.503906 203.222656 64.148438 204.242188 C 74.179688 205.300781 82.632812 209.601562 89.347656 217.167969 C 90.378906 218.328125 91.261719 219.648438 91.492188 221.292969 C 91.800781 223.492188 90.96875 225.210938 89.230469 226.441406 C 87.460938 227.695312 85.511719 227.8125 83.644531 226.640625 C 82.535156 225.945312 81.546875 225.0625 80.289062 224.347656 C 82.0625 228.695312 83.179688 233.160156 83.464844 237.9375 C 84.636719 237.921875 85.265625 237.09375 86.027344 236.566406 C 91.699219 232.625 98.84375 234.335938 102.121094 240.433594 C 104.011719 243.953125 104.621094 247.800781 104.667969 251.691406 C 104.785156 261.367188 104.746094 271.046875 104.726562 280.722656 C 104.71875 284.3125 102.597656 286.851562 99.675781 286.933594 C 96.46875 287.027344 94.113281 284.53125 94.078125 280.683594 C 93.996094 271.339844 94.046875 261.992188 93.996094 252.648438 C 93.988281 251.085938 93.753906 249.523438 93.597656 247.964844 C 93.503906 247.046875 93.371094 246.078125 92.304688 245.777344 C 91.292969 245.492188 90.59375 246.171875 89.910156 246.789062 C 87.5 248.976562 85.621094 251.59375 83.863281 254.304688 C 78.726562 262.222656 71.621094 266.898438 61.84375 267.589844 M 74.792969 250.320312 C 72.730469 250.765625 70.660156 251.289062 68.632812 249.480469 C 71.605469 245.085938 72.703125 240.316406 72.21875 235.09375 C 71.269531 224.808594 61.210938 219.378906 52.1875 224.375 C 43.175781 229.363281 40.714844 242.988281 47.296875 251.464844 C 51.296875 256.613281 56.257812 257.910156 62.097656 255.085938 C 64.023438 254.15625 64.960938 254.632812 65.429688 256.648438 C 69.171875 255.285156 72.492188 253.714844 74.792969 250.320312 Z M 74.792969 250.320312 " fill-opacity="1" fill-rule="nonzero"/><path fill="#000000" d="M 341.4375 203.730469 C 354.246094 209.097656 363.746094 217.511719 368.308594 230.773438 C 369.957031 235.570312 370.820312 240.519531 370.804688 245.609375 C 370.789062 249.914062 370.660156 254.21875 370.859375 258.511719 C 371.011719 261.773438 369.886719 264.300781 367.542969 266.425781 C 359.585938 273.644531 351.648438 280.894531 343.664062 288.085938 C 341.023438 290.464844 338.300781 292.757812 335.550781 295.007812 C 332.710938 297.328125 329.515625 298.441406 325.726562 298.429688 C 318.207031 298.40625 310.683594 298.152344 303.160156 298.726562 C 293.058594 299.496094 284.125 302.5 277.46875 310.726562 C 274.335938 314.601562 271.039062 314.683594 267.433594 311.519531 C 261.464844 306.285156 255.511719 301.03125 249.550781 295.789062 C 248.421875 294.796875 247.332031 293.761719 246.996094 292.226562 C 246.222656 288.660156 249.527344 285.578125 253.230469 286.375 C 255.429688 286.851562 257.058594 288.285156 258.691406 289.675781 C 262.59375 293 266.515625 296.304688 270.316406 299.746094 C 271.4375 300.757812 272.199219 300.796875 273.226562 299.824219 C 282.726562 290.855469 294.40625 288.285156 307.007812 288.003906 C 312.710938 287.875 318.414062 287.824219 324.117188 287.777344 C 327.125 287.753906 329.527344 286.6875 331.714844 284.714844 C 340.625 276.691406 349.566406 268.703125 358.527344 260.730469 C 361.511719 258.074219 359.886719 254.796875 360.160156 251.792969 C 358.765625 251.335938 357.796875 251.949219 356.789062 252.226562 C 342.8125 256.074219 330.289062 253.960938 319.777344 243.328125 C 316.433594 239.949219 312.839844 236.957031 307.847656 236.265625 C 298.953125 235.035156 292.207031 238.683594 286.996094 245.53125 C 283.148438 250.582031 281.171875 256.34375 280.84375 262.765625 C 280.566406 268.144531 280.835938 273.503906 280.800781 278.871094 C 280.792969 279.535156 280.835938 280.199219 280.792969 280.855469 C 280.554688 284.679688 278.449219 287.007812 275.320312 286.9375 C 272.21875 286.871094 270.1875 284.445312 270.257812 280.539062 C 270.398438 272.941406 269.726562 265.324219 270.730469 257.746094 C 272.773438 242.320312 283.90625 228.308594 299.957031 225.8125 C 308.675781 224.457031 316.734375 226.335938 323.402344 232.570312 C 324.550781 233.640625 325.71875 234.691406 326.84375 235.789062 C 335.382812 244.101562 347.496094 245.90625 358.253906 240.601562 C 359.902344 239.789062 359.839844 238.808594 359.464844 237.421875 C 356.875 227.769531 350.921875 220.75 342.386719 215.851562 C 325.675781 206.261719 305.960938 209.679688 293.417969 224.246094 C 293.257812 224.433594 293.097656 224.625 292.933594 224.808594 C 290.378906 227.605469 287.296875 228.226562 285.074219 226.398438 C 282.621094 224.382812 282.382812 220.886719 284.886719 217.976562 C 292.679688 208.910156 302.28125 202.753906 314.21875 200.78125 C 323.460938 199.257812 332.496094 200.304688 341.4375 203.730469 Z M 341.4375 203.730469 " fill-opacity="1" fill-rule="nonzero"/><path fill="#000000" d="M 41.253906 133.894531 C 41.253906 142.085938 41.308594 150.023438 41.210938 157.960938 C 41.1875 160.027344 41.875 160.613281 43.917969 160.597656 C 56.574219 160.515625 69.226562 160.550781 81.878906 160.570312 C 87.917969 160.578125 90.335938 162.984375 90.34375 168.980469 C 90.347656 174.605469 90.359375 180.230469 90.304688 185.851562 C 90.257812 190.9375 88.246094 193.214844 83.179688 193.402344 C 77.398438 193.617188 71.601562 193.589844 65.816406 193.480469 C 61.898438 193.410156 59.785156 191.34375 59.875 187.386719 C 59.941406 184.589844 58.832031 184.160156 56.394531 184.183594 C 44.902344 184.292969 33.414062 184.257812 21.921875 184.230469 C 14.972656 184.214844 12.128906 181.34375 12.125 174.417969 C 12.117188 159.203125 12.125 143.984375 12.132812 128.765625 C 12.132812 127.449219 12.089844 126.128906 12.476562 124.828125 C 13.507812 121.328125 15.886719 119.414062 19.527344 119.347656 C 22.589844 119.292969 25.648438 119.28125 28.707031 119.351562 C 30.269531 119.390625 30.875 118.816406 31.019531 117.226562 C 31.410156 112.957031 34.40625 110.066406 38.703125 109.980469 C 45.234375 109.847656 51.773438 109.847656 58.304688 109.972656 C 62.230469 110.046875 64.9375 112.835938 65.007812 116.8125 C 65.042969 118.824219 65.808594 119.34375 67.671875 119.332031 C 76.761719 119.269531 85.855469 119.257812 94.949219 119.324219 C 98.757812 119.351562 100.796875 121.171875 100.828125 124.238281 C 100.859375 127.210938 98.683594 129.386719 95.074219 129.417969 C 83.246094 129.519531 71.417969 129.519531 59.59375 129.429688 C 56.378906 129.40625 54.742188 127.414062 54.476562 123.890625 C 54.199219 120.203125 54.199219 120.195312 50.484375 120.203125 C 48.171875 120.207031 45.855469 120.222656 43.539062 120.269531 C 41.960938 120.300781 41.171875 120.992188 41.222656 122.734375 C 41.320312 126.367188 41.253906 130.007812 41.253906 133.894531 M 31.199219 164.542969 C 30.773438 154.789062 31.136719 145.03125 31.019531 135.28125 C 30.945312 128.683594 32.070312 129.746094 25.195312 129.558594 C 23.042969 129.496094 22.3125 130.203125 22.328125 132.390625 C 22.410156 145.371094 22.417969 158.355469 22.332031 171.339844 C 22.316406 173.570312 23.097656 174.152344 25.214844 174.128906 C 33.394531 174.039062 41.578125 174.050781 49.757812 174.128906 C 54.878906 174.179688 60.015625 173.8125 65.125 174.414062 C 67.84375 174.734375 69.503906 176.382812 69.953125 178.980469 C 70.636719 182.953125 70.636719 182.953125 74.828125 182.957031 C 75.738281 182.957031 76.648438 182.917969 77.554688 182.96875 C 79.117188 183.058594 79.847656 182.394531 79.816406 180.800781 C 79.78125 178.734375 79.839844 176.664062 79.839844 174.597656 C 79.847656 170.789062 79.84375 170.773438 76.015625 170.769531 C 64.023438 170.75 52.03125 170.769531 40.039062 170.722656 C 35.058594 170.703125 32.855469 169.175781 31.199219 164.542969 Z M 31.199219 164.542969 " fill-opacity="1" fill-rule="nonzero"/><path fill="#000000" d="M 166.777344 20.457031 C 169.445312 20.253906 170.847656 21.964844 172.363281 23.488281 C 176.074219 27.230469 178.382812 27.425781 182.679688 24.429688 C 183.582031 23.800781 183.527344 22.894531 183.566406 21.992188 C 183.660156 19.847656 183.621094 17.691406 183.863281 15.5625 C 184.191406 12.703125 186.300781 11.035156 189.148438 11.132812 C 191.902344 11.230469 193.773438 12.964844 194.148438 15.667969 C 194.414062 17.570312 194.257812 19.460938 194.191406 21.355469 C 194.125 23.09375 194.488281 24.484375 196.539062 24.769531 C 196.9375 24.828125 197.316406 25.046875 197.695312 25.207031 C 202.148438 27.089844 202.144531 27.082031 205.535156 23.734375 C 206.355469 22.925781 207.15625 22.066406 208.085938 21.394531 C 210.046875 19.976562 212.78125 20.195312 214.488281 21.785156 C 216.351562 23.519531 216.746094 26.136719 215.503906 28.316406 C 214.453125 30.164062 212.8125 31.464844 211.1875 32.710938 C 209.449219 34.042969 209.304688 35.394531 210.449219 37.136719 C 210.894531 37.816406 211.328125 38.605469 211.4375 39.394531 C 211.886719 42.574219 213.808594 43.351562 216.683594 42.957031 C 217.816406 42.804688 219.007812 42.871094 220.148438 43.023438 C 222.878906 43.390625 224.925781 45.714844 224.871094 48.242188 C 224.816406 50.710938 222.878906 52.761719 220.1875 53.21875 C 218.382812 53.523438 216.5625 53.515625 214.75 53.359375 C 213.128906 53.214844 212.175781 53.808594 211.53125 55.378906 C 209.410156 60.535156 209.378906 60.492188 213.351562 64.613281 C 215.125 66.449219 217.097656 68.246094 215.988281 71.28125 C 214.628906 75.015625 210.644531 76.238281 207.628906 73.664062 C 205.9375 72.222656 204.464844 70.519531 202.9375 68.894531 C 202.078125 67.980469 201.1875 67.707031 200.09375 68.4375 C 200.027344 68.480469 199.949219 68.519531 199.871094 68.539062 C 195.753906 69.550781 193.644531 71.746094 194.335938 76.382812 C 194.6875 78.75 193.804688 81.128906 191.183594 82.3125 C 187.753906 83.855469 184.253906 81.957031 183.917969 78.203125 C 183.75 76.316406 183.859375 74.40625 183.839844 72.503906 C 183.835938 71.75 183.847656 70.960938 183.015625 70.589844 C 181.054688 69.714844 179.089844 68.851562 177.113281 68.015625 C 176.234375 67.644531 175.710938 68.332031 175.207031 68.832031 C 173.800781 70.230469 172.492188 71.734375 171.058594 73.101562 C 168.574219 75.46875 165.632812 75.625 163.5625 73.589844 C 161.394531 71.457031 161.355469 68.300781 163.589844 65.832031 C 164.863281 64.425781 166.269531 63.136719 167.675781 61.859375 C 168.652344 60.96875 168.769531 60.1875 168.3125 58.839844 C 166.921875 54.757812 164.964844 52.066406 159.988281 53.3125 C 158.582031 53.664062 156.859375 53.304688 155.554688 52.171875 C 153.90625 50.734375 153.195312 48.953125 153.75 46.847656 C 154.335938 44.621094 155.960938 43.347656 158.195312 43.082031 C 159.992188 42.867188 161.828125 42.878906 163.644531 42.9375 C 165.125 42.980469 165.628906 42.253906 166.320312 41.003906 C 168.761719 36.5625 168.316406 33.378906 164.039062 29.996094 C 160.042969 26.832031 161.765625 21.5625 166.777344 20.457031 M 184.695312 60.101562 C 194.808594 63.699219 204.695312 53.988281 202.25 44.5625 C 200.535156 37.960938 193.925781 32.964844 187.519531 33.953125 C 181.328125 34.90625 176.53125 39.714844 175.789062 45.714844 C 175.042969 51.734375 178.378906 57.296875 184.695312 60.101562 Z M 184.695312 60.101562 " fill-opacity="1" fill-rule="nonzero"/><path fill="#000000" d="M 110.699219 86.855469 C 108.507812 89.09375 107.523438 91.5 107.695312 94.574219 C 107.886719 98.019531 105.695312 100.195312 102.230469 100.257812 C 96.445312 100.359375 90.652344 100.363281 84.863281 100.257812 C 81.558594 100.199219 79.007812 97.96875 79.238281 94.890625 C 79.496094 91.445312 77.863281 89.164062 75.929688 86.714844 C 70.167969 79.414062 68.476562 71.375 72.101562 62.558594 C 75.875 53.394531 85.539062 47.910156 96.046875 48.917969 C 105.882812 49.867188 114.265625 57.546875 116.183594 67.097656 C 117.6875 74.597656 115.375 80.9375 110.699219 86.855469 M 99.878906 60.90625 C 92.292969 56.796875 83.511719 60.058594 81.296875 68.003906 C 79.8125 73.316406 81.636719 77.898438 85.257812 81.867188 C 86.476562 83.203125 87.839844 84.414062 88.398438 86.25 C 89.566406 90.113281 89.597656 90.105469 93.714844 90.113281 C 94.621094 90.117188 95.53125 90.117188 96.4375 90.101562 C 97.132812 90.09375 97.921875 89.964844 97.933594 89.144531 C 98.007812 85.273438 100.746094 82.921875 102.9375 80.296875 C 107.695312 74.605469 107.230469 65.355469 99.878906 60.90625 Z M 99.878906 60.90625 " fill-opacity="1" fill-rule="nonzero"/><path fill="#000000" d="M 300.355469 333.503906 C 290.542969 333.046875 285.191406 323.382812 288.523438 314.785156 C 290.222656 310.40625 294.082031 307.5625 298.792969 307.5 C 304.914062 307.421875 311.03125 307.445312 317.152344 307.488281 C 320.257812 307.511719 322.558594 309.589844 322.527344 312.171875 C 322.496094 314.835938 320.351562 316.671875 317.070312 316.710938 C 312.6875 316.765625 308.304688 316.738281 303.921875 316.75 C 303.179688 316.75 302.433594 316.730469 301.691406 316.773438 C 299.570312 316.890625 298.019531 317.878906 297.515625 319.992188 C 297.15625 321.496094 299.042969 323.773438 300.953125 324.34375 C 303.378906 325.070312 305.878906 324.75 308.351562 324.789062 C 310.089844 324.816406 311.828125 324.738281 313.558594 324.824219 C 316.347656 324.957031 318.136719 326.613281 318.191406 328.988281 C 318.242188 331.21875 316.640625 333.121094 313.964844 333.308594 C 310.179688 333.578125 306.367188 333.480469 302.566406 333.53125 C 301.90625 333.539062 301.242188 333.519531 300.355469 333.503906 Z M 300.355469 333.503906 " fill-opacity="1" fill-rule="nonzero"/><path fill="#000000" d="M 323.160156 129.867188 C 313.203125 129.925781 303.460938 130.027344 293.71875 129.9375 C 289.242188 129.894531 286.738281 126.578125 288.160156 123.015625 C 289.003906 120.894531 290.734375 119.957031 292.828125 119.945312 C 302.738281 119.882812 312.644531 119.851562 322.554688 119.984375 C 325.636719 120.023438 327.445312 121.855469 327.632812 124.382812 C 327.847656 127.222656 326.546875 128.882812 323.160156 129.867188 Z M 323.160156 129.867188 " fill-opacity="1" fill-rule="nonzero"/><path fill="#000000" d="M 326.109375 100.496094 C 327.792969 102.25 328.078125 104.128906 327.214844 106.125 C 326.285156 108.269531 324.441406 109.164062 322.230469 109.175781 C 312.640625 109.214844 303.050781 109.28125 293.460938 109.148438 C 289.1875 109.089844 286.761719 105.632812 288.242188 102.191406 C 289.082031 100.226562 290.675781 99.222656 292.722656 99.214844 C 302.640625 99.15625 312.558594 99.164062 322.480469 99.210938 C 323.707031 99.214844 324.929688 99.597656 326.109375 100.496094 Z M 326.109375 100.496094 " fill-opacity="1" fill-rule="nonzero"/><path fill="#000000" d="M 130.859375 49.070312 C 130.535156 49.554688 130.242188 49.894531 130.167969 50.277344 C 129.464844 53.902344 127.570312 55.078125 124.027344 54.09375 C 122.988281 53.804688 122.609375 53.050781 122.40625 52.125 C 121.433594 47.703125 123.183594 43.648438 127.078125 41.210938 C 128.382812 40.394531 129.695312 39.367188 129.003906 37.65625 C 128.277344 35.859375 126.519531 35.898438 124.945312 36.285156 C 124.015625 36.511719 123.15625 37.09375 122.324219 37.613281 C 120.3125 38.867188 118.683594 38.089844 117.21875 36.671875 C 115.667969 35.171875 115.347656 33.382812 116.449219 31.5 C 119.1875 26.808594 127.910156 25.417969 133.191406 28.789062 C 138.390625 32.109375 140.023438 39.0625 136.730469 43.925781 C 135.257812 46.09375 133.128906 47.523438 130.859375 49.070312 Z M 130.859375 49.070312 " fill-opacity="1" fill-rule="nonzero"/><path fill="#000000" d="M 131.746094 81.515625 C 126.464844 76.816406 125.824219 70.125 130.0625 65.355469 C 134.144531 60.757812 141.023438 60.378906 145.613281 64.5 C 149.902344 68.347656 150.484375 74.507812 147.019531 79.28125 C 143.722656 83.824219 137.246094 84.824219 131.746094 81.515625 M 136.078125 70.996094 C 134.277344 72.722656 134.425781 73.042969 138.421875 75.847656 C 139.132812 74.855469 140.117188 74.230469 141.367188 74.285156 C 141.367188 73.144531 141.367188 72.195312 141.367188 71.054688 C 139.738281 71.414062 139.234375 69.792969 138.097656 69.328125 C 137.476562 69.902344 136.945312 70.390625 136.078125 70.996094 Z M 136.078125 70.996094 " fill-opacity="1" fill-rule="nonzero"/><path fill="#000000" d="M 244.535156 36.570312 C 242.53125 37.304688 241.167969 36.492188 240.015625 35.164062 C 238.859375 33.832031 239.207031 32.375 239.851562 30.976562 C 242.292969 25.648438 249.046875 22.984375 255.316406 24.847656 C 261.046875 26.546875 264.53125 31.902344 263.585938 37.808594 C 262.910156 42.035156 260.199219 44.675781 256.324219 46.15625 C 254.945312 46.679688 253.574219 46.976562 252.589844 48.296875 C 251.757812 49.40625 250.414062 49.398438 249.183594 48.847656 C 247.839844 48.242188 247.171875 47.105469 247.234375 45.667969 C 247.335938 43.421875 248.4375 41.753906 250.496094 40.789062 C 251.167969 40.476562 251.902344 40.304688 252.574219 40 C 254.949219 38.933594 256.015625 36.804688 255.191406 34.835938 C 254.332031 32.78125 251.5625 31.839844 249.265625 32.746094 C 247.332031 33.507812 246.355469 35.40625 244.535156 36.570312 Z M 244.535156 36.570312 " fill-opacity="1" fill-rule="nonzero"/><path fill="#000000" d="M 324.507812 270.382812 C 326.503906 273.507812 325.933594 276.75 322.910156 277.742188 C 314.492188 280.507812 301.957031 281.195312 294.21875 272.785156 C 293.496094 272 292.820312 271.140625 292.292969 270.21875 C 291 267.949219 291.476562 265.539062 293.410156 263.996094 C 295.375 262.429688 297.910156 262.40625 299.609375 264.554688 C 302.59375 268.324219 306.5 269.710938 311.042969 270.097656 C 313.640625 270.316406 316.140625 269.75 318.679688 269.476562 C 320.636719 269.265625 322.632812 268.742188 324.507812 270.382812 Z M 324.507812 270.382812 " fill-opacity="1" fill-rule="nonzero"/><path fill="#000000" d="M 69.992188 319.75 C 69.640625 318.578125 70.046875 317.757812 70.703125 317.09375 C 73.144531 314.632812 75.621094 312.203125 78.101562 309.777344 C 79.480469 308.433594 80.890625 308.46875 82.222656 309.84375 C 84.523438 312.214844 86.816406 314.597656 89.078125 317.003906 C 90.285156 318.285156 90.351562 319.753906 89.152344 321.007812 C 86.816406 323.453125 84.394531 325.824219 81.933594 328.152344 C 80.777344 329.246094 79.3125 329.433594 78.152344 328.242188 C 75.449219 325.476562 72.3125 323.128906 69.992188 319.75 M 81.089844 317.566406 C 79.914062 316.164062 79.320312 317.398438 78.617188 318.113281 C 77.875 318.871094 78.042969 319.519531 78.8125 320.164062 C 79.492188 320.738281 80.113281 321.097656 80.949219 320.394531 C 81.878906 319.609375 82.429688 318.839844 81.089844 317.566406 Z M 81.089844 317.566406 " fill-opacity="1" fill-rule="nonzero"/><path fill="#000000" d="M 59.257812 82.53125 C 57.304688 84.449219 55.488281 86.246094 53.652344 88.023438 C 51.914062 89.703125 50.183594 89.683594 48.472656 87.96875 C 46.492188 85.984375 44.457031 84.050781 42.53125 82.019531 C 40.609375 79.992188 40.605469 78.941406 42.503906 76.949219 C 44.550781 74.800781 46.6875 72.742188 48.796875 70.65625 C 50.300781 69.175781 51.890625 69.160156 53.367188 70.628906 C 55.707031 72.949219 58.003906 75.3125 60.246094 77.726562 C 61.980469 79.597656 60.675781 81.027344 59.257812 82.53125 M 49.4375 79.75 C 49.945312 80.386719 50.410156 81.074219 51.28125 81.363281 C 52.171875 80.941406 52.953125 80.414062 53.140625 79.300781 C 52.5 78.546875 51.980469 77.707031 50.976562 77.390625 C 50.269531 78.003906 49.445312 78.449219 49.4375 79.75 Z M 49.4375 79.75 " fill-opacity="1" fill-rule="nonzero"/><path fill="#000000" d="M 61.921875 137.734375 C 64.152344 137.742188 66.140625 137.664062 68.121094 137.777344 C 71.476562 137.96875 73.554688 140 73.617188 142.988281 C 73.679688 145.824219 71.730469 148.082031 68.480469 148.257812 C 64.03125 148.492188 59.550781 148.488281 55.097656 148.304688 C 52.082031 148.179688 50.011719 145.691406 50.078125 142.859375 C 50.136719 140.207031 52.253906 138.023438 55.230469 137.800781 C 57.367188 137.640625 59.527344 137.746094 61.921875 137.734375 Z M 61.921875 137.734375 " fill-opacity="1" fill-rule="nonzero"/><path fill="#000000" d="M 294.78125 150.433594 C 291.875 150.675781 289.601562 150.0625 288.3125 147.445312 C 286.875 144.53125 288.214844 141.1875 291.414062 140.710938 C 297.058594 139.867188 302.777344 140.023438 308.4375 140.714844 C 310.730469 140.992188 312.328125 143.476562 312.132812 145.617188 C 311.90625 148.109375 309.664062 150.289062 306.914062 150.375 C 302.953125 150.5 298.984375 150.425781 294.78125 150.433594 Z M 294.78125 150.433594 " fill-opacity="1" fill-rule="nonzero"/><path fill="#000000" d="M 249.199219 50.367188 C 254.683594 50.398438 258.503906 54.070312 258.105469 58.703125 C 257.730469 63.105469 253.382812 66.355469 248.90625 65.582031 C 245.386719 64.976562 242.65625 61.757812 242.515625 58.054688 C 242.382812 54.515625 244.898438 51.535156 249.199219 50.367188 M 248.472656 58.804688 C 249.046875 59.722656 249.785156 60.3125 250.925781 59.832031 C 251.753906 59.484375 252.320312 58.804688 252.195312 57.917969 C 252.0625 56.9375 251.3125 56.25 250.339844 56.21875 C 248.878906 56.171875 248.410156 57.203125 248.472656 58.804688 Z M 248.472656 58.804688 " fill-opacity="1" fill-rule="nonzero"/><path fill="#000000" d="M 359.617188 164.808594 C 359.992188 166.417969 361.269531 166.511719 362.328125 166.867188 C 363.707031 167.328125 365.074219 167.835938 365.015625 169.605469 C 364.960938 171.171875 363.820312 171.925781 362.453125 172.210938 C 360.695312 172.570312 359.816406 173.613281 359.347656 175.285156 C 358.984375 176.570312 358.335938 177.746094 356.667969 177.746094 C 355.058594 177.746094 354.296875 176.683594 353.859375 175.390625 C 353.304688 173.757812 352.234375 172.816406 350.621094 172.300781 C 349.316406 171.886719 348.183594 171.164062 348.21875 169.554688 C 348.25 167.949219 349.34375 167.308594 350.71875 166.933594 C 352.136719 166.546875 353.222656 165.828125 353.71875 164.300781 C 354.171875 162.890625 354.699219 161.410156 356.636719 161.460938 C 358.699219 161.519531 359.027344 163.164062 359.617188 164.808594 Z M 359.617188 164.808594 " fill-opacity="1" fill-rule="nonzero"/><path fill="#000000" d="M 101.070312 111.300781 C 99.902344 113.023438 98.382812 113.597656 96.546875 113.765625 C 94.320312 113.964844 92.109375 113.878906 89.898438 113.699219 C 87.277344 113.484375 85.257812 111.203125 85.214844 108.523438 C 85.171875 106.066406 87.003906 104.242188 89.863281 104.121094 C 92.242188 104.019531 94.644531 103.984375 97.015625 104.167969 C 101.398438 104.507812 102.78125 106.917969 101.070312 111.300781 Z M 101.070312 111.300781 " fill-opacity="1" fill-rule="nonzero"/><path fill="#000000" d="M 300.808594 200.773438 C 298.710938 201.40625 297.246094 200.691406 296.042969 199.242188 C 294.5625 197.464844 293.265625 195.554688 292.242188 193.488281 C 291.105469 191.195312 291.875 188.832031 294.035156 187.53125 C 296.15625 186.25 298.25 186.648438 299.851562 188.839844 C 301.058594 190.496094 302.136719 192.265625 303.132812 194.058594 C 304.804688 197.078125 304.167969 198.929688 300.808594 200.773438 Z M 300.808594 200.773438 " fill-opacity="1" fill-rule="nonzero"/><path fill="#000000" d="M 324.949219 195.449219 C 320.753906 197.878906 317.503906 196.078125 317.4375 191.484375 C 317.414062 189.671875 317.355469 187.847656 317.492188 186.042969 C 317.683594 183.476562 319.375 181.945312 321.847656 181.890625 C 324.257812 181.835938 326.191406 183.144531 326.296875 185.578125 C 326.441406 188.847656 327.589844 192.339844 324.949219 195.449219 Z M 324.949219 195.449219 " fill-opacity="1" fill-rule="nonzero"/><path fill="#000000" d="M 344.152344 188.1875 C 346.519531 186.449219 348.5625 186.425781 350.324219 187.972656 C 352.21875 189.636719 352.476562 191.484375 351.003906 193.941406 C 349.992188 195.636719 348.945312 197.332031 347.714844 198.875 C 346.054688 200.960938 343.71875 201.351562 341.804688 200.085938 C 339.75 198.730469 339.175781 196.332031 340.496094 193.992188 C 341.589844 192.058594 342.84375 190.214844 344.152344 188.1875 Z M 344.152344 188.1875 " fill-opacity="1" fill-rule="nonzero"/><path fill="#000000" d="M 231.359375 85.019531 C 229.523438 82.613281 229.5625 80.257812 231.0625 77.972656 C 232.375 75.972656 234.402344 75.324219 236.695312 75.765625 C 239.027344 76.214844 240.445312 77.710938 240.964844 80.042969 C 241.46875 82.300781 240.417969 84.613281 238.28125 85.945312 C 236.023438 87.355469 234.011719 87.121094 231.359375 85.019531 Z M 231.359375 85.019531 " fill-opacity="1" fill-rule="nonzero"/><path fill="#000000" d="M 248.769531 86.207031 C 246.277344 84.550781 245.445312 82.347656 246.121094 79.6875 C 246.664062 77.550781 248.007812 76.03125 250.324219 75.699219 C 252.734375 75.359375 254.792969 76.039062 255.992188 78.265625 C 257.132812 80.378906 257.082031 82.546875 255.558594 84.515625 C 253.980469 86.554688 251.714844 87.136719 248.769531 86.207031 Z M 248.769531 86.207031 " fill-opacity="1" fill-rule="nonzero"/><path fill="#000000" d="M 183.398438 352.878906 C 181.558594 349.953125 181.429688 347.90625 183.035156 345.867188 C 184.429688 344.097656 186.332031 343.371094 188.542969 343.929688 C 190.855469 344.511719 192.25 346.097656 192.578125 348.445312 C 192.910156 350.800781 191.960938 352.660156 189.878906 353.84375 C 187.578125 355.144531 185.441406 354.84375 183.398438 352.878906 Z M 183.398438 352.878906 " fill-opacity="1" fill-rule="nonzero"/><path fill="#000000" d="M 294.441406 87.414062 C 290.890625 87.332031 288.867188 85.691406 288.546875 82.808594 C 288.21875 79.855469 289.804688 77.539062 292.601562 76.875 C 295.273438 76.242188 297.929688 77.6875 298.976562 80.34375 C 300.125 83.253906 298.320312 86.179688 294.441406 87.414062 Z M 294.441406 87.414062 " fill-opacity="1" fill-rule="nonzero"/><path fill="#000000" d="M 301.871094 249.554688 C 300.976562 244.824219 303.78125 241.570312 307.5 242.765625 C 309.789062 243.5 311.035156 245.15625 311.183594 247.515625 C 311.3125 249.550781 309.601562 251.660156 307.5 252.242188 C 304.976562 252.941406 303.171875 251.972656 301.871094 249.554688 Z M 301.871094 249.554688 " fill-opacity="1" fill-rule="nonzero"/><path fill="#000000" d="M 122.480469 269.832031 C 124.539062 268.386719 126.53125 268.273438 128.402344 269.625 C 129.964844 270.753906 130.863281 272.394531 130.402344 274.371094 C 129.914062 276.476562 128.472656 277.816406 126.347656 278.285156 C 124.351562 278.726562 122.707031 278.003906 121.652344 276.308594 C 120.269531 274.078125 120.519531 271.90625 122.480469 269.832031 Z M 122.480469 269.832031 " fill-opacity="1" fill-rule="nonzero"/><path fill="#000000" d="M 253.824219 274.570312 C 252.53125 277.328125 250.605469 278.671875 248.511719 278.347656 C 246.308594 278.007812 245.003906 276.632812 244.53125 274.519531 C 243.9375 271.863281 245.484375 269.375 247.964844 268.835938 C 250.792969 268.222656 253.195312 269.800781 253.773438 272.691406 C 253.882812 273.242188 253.847656 273.820312 253.824219 274.570312 Z M 253.824219 274.570312 " fill-opacity="1" fill-rule="nonzero"/><path fill="#000000" d="M 281.765625 37.757812 C 280.210938 40.589844 278.210938 41.679688 275.914062 41.09375 C 273.863281 40.574219 272.566406 38.753906 272.59375 36.4375 C 272.628906 33.65625 274.574219 31.609375 277.1875 31.609375 C 279.785156 31.609375 281.832031 33.628906 281.953125 36.335938 C 281.96875 36.742188 281.875 37.15625 281.765625 37.757812 Z M 281.765625 37.757812 " fill-opacity="1" fill-rule="nonzero"/><path fill="#000000" d="M 261.867188 248.246094 C 262.332031 249.71875 262.40625 251.011719 261.789062 252.265625 C 260.566406 254.75 257.515625 255.761719 255.316406 254.421875 C 253.066406 253.050781 252.398438 249.988281 253.855469 247.71875 C 255.367188 245.363281 258.246094 244.851562 260.511719 246.59375 C 261.015625 246.984375 261.363281 247.578125 261.867188 248.246094 Z M 261.867188 248.246094 " fill-opacity="1" fill-rule="nonzero"/><path fill="#000000" d="M 30.484375 90 C 33.351562 89.050781 35.257812 89.566406 36.507812 91.550781 C 37.667969 93.390625 37.496094 95.210938 36.125 96.816406 C 34.707031 98.472656 32.910156 99.050781 30.78125 98.203125 C 27.882812 97.054688 26.96875 91.949219 30.484375 90 Z M 30.484375 90 " fill-opacity="1" fill-rule="nonzero"/><path fill="#000000" d="M 371.214844 201.195312 C 369.550781 204.796875 366.671875 205.914062 364.101562 204.136719 C 362.351562 202.921875 361.710938 200.722656 362.535156 198.679688 C 363.394531 196.546875 365.117188 195.71875 367.261719 195.921875 C 369.65625 196.152344 371.152344 198.1875 371.214844 201.195312 Z M 371.214844 201.195312 " fill-opacity="1" fill-rule="nonzero"/><path fill="#000000" d="M 54.726562 312.433594 C 54.675781 309.855469 55.6875 308.269531 58.191406 307.996094 C 60.25 307.769531 61.722656 308.6875 62.402344 310.652344 C 63.117188 312.726562 61.980469 314.90625 59.914062 315.621094 C 57.457031 316.472656 55.722656 315.464844 54.726562 312.433594 Z M 54.726562 312.433594 " fill-opacity="1" fill-rule="nonzero"/><path fill="#000000" d="M 93.511719 36.027344 C 93.808594 33.125 95.097656 31.71875 97.210938 31.785156 C 99.269531 31.84375 101.046875 33.597656 101.078125 35.589844 C 101.105469 37.511719 99.308594 39.394531 97.265625 39.4375 C 95.128906 39.476562 93.898438 38.324219 93.511719 36.027344 Z M 93.511719 36.027344 " fill-opacity="1" fill-rule="nonzero"/><path fill="#000000" d="M 140.679688 22.210938 C 141.152344 19.335938 142.796875 17.902344 144.925781 18.300781 C 147.070312 18.703125 148.464844 20.777344 148.027344 22.902344 C 147.59375 24.984375 145.695312 26.292969 143.597656 25.863281 C 141.757812 25.488281 140.734375 24.339844 140.679688 22.210938 Z M 140.679688 22.210938 " fill-opacity="1" fill-rule="nonzero"/><path fill="#000000" d="M 228.789062 21.386719 C 230.039062 19.78125 231.4375 19.226562 233.226562 19.945312 C 234.652344 20.519531 235.542969 21.5625 235.628906 23.078125 C 235.714844 24.59375 234.894531 25.726562 233.617188 26.503906 C 232.253906 27.335938 230.921875 27.171875 229.761719 26.144531 C 228.351562 24.894531 227.707031 23.394531 228.789062 21.386719 Z M 228.789062 21.386719 " fill-opacity="1" fill-rule="nonzero"/><path fill="#000000" d="M 122.128906 251.980469 C 121.753906 254.230469 120.535156 255.46875 118.457031 255.398438 C 116.847656 255.34375 115.75 254.3125 115.421875 252.664062 C 115.015625 250.609375 116.054688 248.878906 117.882812 248.492188 C 119.925781 248.058594 121.566406 249.328125 122.128906 251.980469 Z M 122.128906 251.980469 " fill-opacity="1" fill-rule="nonzero"/><path fill="#000000" d="M 121.375 355.304688 C 122.972656 356.878906 123.132812 358.496094 121.847656 360.039062 C 120.839844 361.25 119.472656 361.769531 117.882812 361.023438 C 116.242188 360.25 115.628906 358.917969 115.945312 357.195312 C 116.355469 354.949219 118.476562 354.164062 121.375 355.304688 Z M 121.375 355.304688 " fill-opacity="1" fill-rule="nonzero"/><path fill="#000000" d="M 185.511719 166.222656 C 179.847656 166.285156 175.714844 168.433594 173.410156 173.574219 C 172.777344 174.980469 172.78125 176.457031 172.671875 177.941406 C 172.472656 180.636719 171.582031 182.9375 168.9375 184.195312 C 164.691406 186.214844 160.273438 183.390625 160.046875 178.503906 C 159.617188 169.140625 166.125 159.972656 175.636719 156.554688 C 187.363281 152.335938 199.933594 155.964844 206.902344 165.578125 C 213.964844 175.320312 213.664062 189.90625 206.257812 199.441406 C 203.902344 202.46875 201.214844 205.164062 198.183594 207.460938 C 193.652344 210.894531 191.527344 215.179688 192.078125 220.964844 C 192.417969 224.492188 190.214844 226.832031 186.875 227.382812 C 182.953125 228.027344 179.777344 225.425781 179.429688 221.304688 C 178.746094 213.210938 180.832031 206.375 187.59375 201.175781 C 191.171875 198.425781 194.699219 195.480469 197.324219 191.675781 C 203.09375 183.300781 199.660156 170.785156 190.585938 167.089844 C 189.015625 166.449219 187.402344 166.25 185.511719 166.222656 Z M 185.511719 166.222656 " fill-opacity="1" fill-rule="nonzero"/><path fill="#000000" d="M 183.027344 235.855469 C 189.546875 234.613281 194.246094 237.335938 195.644531 242.980469 C 196.929688 248.183594 193.628906 253.535156 188.28125 254.917969 C 183.144531 256.246094 177.757812 252.984375 176.464844 247.761719 C 175.183594 242.582031 177.625 238.039062 183.027344 235.855469 Z M 183.027344 235.855469 " fill-opacity="1" fill-rule="nonzero"/><path fill="#000000" d="M 53.917969 229.035156 C 59.441406 226.003906 64.917969 228.582031 65.929688 234.648438 C 66.445312 237.742188 66.332031 240.875 65.53125 243.960938 C 65.042969 245.847656 64.371094 247.085938 62.203125 245.722656 C 61.882812 245.519531 61.433594 245.511719 60.914062 245.382812 C 60.617188 247.230469 62.179688 248.464844 62.226562 250.035156 C 58.472656 252.59375 54.992188 252.066406 52.191406 248.585938 C 47.933594 243.289062 48.707031 233.730469 53.917969 229.035156 Z M 53.917969 229.035156 " fill-opacity="1" fill-rule="nonzero"/></svg>